<?xml version="1.0" encoding="UTF-8" standalone="no"?>
<svg
   xmlns:dc="http://purl.org/dc/elements/1.1/"
   xmlns:cc="http://creativecommons.org/ns#"
   xmlns:rdf="http://www.w3.org/1999/02/22-rdf-syntax-ns#"
   xmlns:svg="http://www.w3.org/2000/svg"
   xmlns="http://www.w3.org/2000/svg"
   xmlns:sodipodi="http://sodipodi.sourceforge.net/DTD/sodipodi-0.dtd"
   xmlns:inkscape="http://www.inkscape.org/namespaces/inkscape"
   inkscape:version="1.0 (4035a4fb49, 2020-05-01)"
   sodipodi:docname="keyboard_keyboard.svg"
   id="svg1202"
   xml:space="preserve"
   style="enable-background:new 0 0 1226 349;"
   viewBox="0 0 1226 349"
   y="0px"
   x="0px"
   version="1.1"><metadata
   id="metadata1208"><rdf:RDF><cc:Work
       rdf:about=""><dc:format>image/svg+xml</dc:format><dc:type
         rdf:resource="http://purl.org/dc/dcmitype/StillImage" /><dc:title>ANSI US QWERTY (Windows) Enter/Return</dc:title></cc:Work></rdf:RDF></metadata><defs
   id="defs1206">
	
	
	
	
	
	
	
	
	
	
	
	
	
	
	
	
	
	
	
	
	
	
	
	
	
	
	
	
	
	
	
	
	
	
	
	
	
	
	
	
	
	
	
	
	
	
	
	
	
	
	
	
	
	
	
	
	
	
	
	
	
	
	
	
	
	
	
	
	
	
	
	
	
	
	
	
	
	
	
	
	
	
	
	
	
	
	
	
	
	
	
	
	
	
	
	
	
	
	
	
	
	
	
	
	
	
	
	
	
	
	
	
	
	
	
	
	
	
	
	
	
	
	
	
	
	
	
	
	
	
	
	
	
	
	
	
	
	

		
		
	
		
		
	
		
		
	
		
		
	
		
		
	
		
		
	
		
		
	
		
		
	
		
		
	
		
		
		
	
		
		
		
	
		
		
		
	
		
		
	
		
		
	
		
		
	
		
		
	
		
		
	
		
		
	
		
		
	
		
		
	
		
		
	
		
		
	
		
		
	
		
		
	
		
		
	
		
	
		
	
		
	
		
	
		
	
		
	
		
	
		
	
		
	
		
	
		
	
		
	
		
	
		
		
	
		
		
	
		
		
	
		
	
		
	
		
	
		
	
		
	
		
	
		
	
		
	
		
	
		
	
		
	
		
	
		
	
		
		
	
		
		
	
		
	
		
	
		
	
		
	
		
	
		
	
		
	
		
	
		
	
		
	
		
		
	
		
		
	
		
		
	
		
	
		
	
		
	
		
	
		
	
		
	
		
	
		
	
		
	
		
		
		
	
		
		
		
		
		
		
		
		
		
		
		
	
		
		
		
		
		
		
		
		
		
		
	
		
		
		
		
		
	
		
		
		
		
		
	
		
		
		
		
		
		
		
		
		
	
		
		
		
		
		
		
	
		
		
		
		
	
		
		
		
		
	
		
		
		
	
		
		
		
	
		
		
		
	
		
		
		
		
	
		
		
		
		
		
		
		
		
	
		
		
		
		
		
		
	
		
		
		
		
		
	
		
		
		
		
		
	
		
		
		
		
		
	
		
		
		
		
		
		
		
	
		
		
		
	
		
		
		
	
		
		
		
		
		
	
		
		
		
	
		
		
		
	
		
		
		
		
	
		
		
		
		
		
		
		
	
	
	
	
	
	
	
	
	
	
	
	
	
	
	
	
	
	
	
	
	
	
	
	
	
	
	
	
	
	
	
	
	
	
	
	
	
	
	
	
	
	
	
	
	
	
	
	
	
	
	
	
	
	
	
	
	
	
	
	
	
	
	
	
	
	
	
	
	
	
	
	
	
	
	
	
	
	
	
	
	
	
	
	
	
	
	
	
	
	
	
	
	
	
	
	
	
	
	
	
	
	
	
	
	
</defs><sodipodi:namedview
   inkscape:current-layer="svg1202"
   inkscape:window-maximized="1"
   inkscape:window-y="-8"
   inkscape:window-x="1016"
   inkscape:cy="68.237862"
   inkscape:cx="458.33195"
   inkscape:zoom="0.9274062"
   showgrid="false"
   id="namedview1204"
   inkscape:window-height="1058"
   inkscape:window-width="1858"
   inkscape:pageshadow="2"
   inkscape:pageopacity="0"
   guidetolerance="10"
   gridtolerance="10"
   objecttolerance="10"
   borderopacity="1"
   bordercolor="#666666"
   pagecolor="#ffffff" />
<title
   id="title2">ANSI US QWERTY (Windows) Enter/Return</title>
<desc
   id="desc4">ANSI US QWERTY keyboard layout for Windows with the location of the Enter and Return keys highlighted</desc>
<style
   id="style6"
   type="text/css">
	.st0{fill:#EEEEEE;stroke:#DDDDDD;}
	.st1{fill:#CCCCCC;stroke:#000000;stroke-width:2;}
	.st2{fill:#CC0000;stroke:#000000;stroke-width:2;}
	.st3{fill:#339900;stroke:#000000;stroke-width:2;}
	.st4{fill:#FCFCFC;}
	.st5{fill:#FF6666;}
	.st6{fill:#66CC33;}
	.st7{fill:#FFFFFF;}
</style>
<g
   id="Layer_1">
	<path
   id="path8"
   d="M6.5,0.5h1213c3.3,0,6,2.7,6,6v336c0,3.3-2.7,6-6,6H6.5c-3.3,0-6-2.7-6-6V6.5C0.5,3.2,3.2,0.5,6.5,0.5z"
   class="st0" />
</g>
<g
   style="fill:#cccccc;fill-opacity:1"
   id="Layer_2">
	<path
   style="fill:#cccccc;fill-opacity:1"
   id="path11"
   d="M13.5,9.8h38c2.2,0,4,1.8,4,4v38c0,2.2-1.8,4-4,4h-38c-2.2,0-4-1.8-4-4v-38C9.5,11.5,11.3,9.8,13.5,9.8z"
   class="st1" />
	<path
   style="fill:#cccccc;fill-opacity:1"
   id="path13"
   d="M121.5,9.8h38c2.2,0,4,1.8,4,4v38c0,2.2-1.8,4-4,4h-38c-2.2,0-4-1.8-4-4v-38C117.5,11.5,119.3,9.8,121.5,9.8z"
   class="st1" />
	<path
   style="fill:#cccccc;fill-opacity:1"
   id="path15"
   d="M175.5,9.8h38c2.2,0,4,1.8,4,4v38c0,2.2-1.8,4-4,4h-38c-2.2,0-4-1.8-4-4v-38C171.5,11.5,173.3,9.8,175.5,9.8z"
   class="st1" />
	<path
   style="fill:#cccccc;fill-opacity:1"
   id="path17"
   d="M229.5,9.8h38c2.2,0,4,1.8,4,4v38c0,2.2-1.8,4-4,4h-38c-2.2,0-4-1.8-4-4v-38C225.5,11.5,227.3,9.8,229.5,9.8z"
   class="st1" />
	<path
   style="fill:#cccccc;fill-opacity:1"
   id="path19"
   d="M283.5,9.8h38c2.2,0,4,1.8,4,4v38c0,2.2-1.8,4-4,4h-38c-2.2,0-4-1.8-4-4v-38C279.5,11.5,281.3,9.8,283.5,9.8z"
   class="st1" />
	<path
   style="fill:#cccccc;fill-opacity:1"
   id="path21"
   d="M364.5,9.8h38c2.2,0,4,1.8,4,4v38c0,2.2-1.8,4-4,4h-38c-2.2,0-4-1.8-4-4v-38C360.5,11.5,362.3,9.8,364.5,9.8z"
   class="st1" />
	<path
   style="fill:#cccccc;fill-opacity:1"
   id="path23"
   d="M418.5,9.8h38c2.2,0,4,1.8,4,4v38c0,2.2-1.8,4-4,4h-38c-2.2,0-4-1.8-4-4v-38C414.5,11.5,416.3,9.8,418.5,9.8z"
   class="st1" />
	<path
   style="fill:#cccccc;fill-opacity:1"
   id="path25"
   d="M472.5,9.8h38c2.2,0,4,1.8,4,4v38c0,2.2-1.8,4-4,4h-38c-2.2,0-4-1.8-4-4v-38C468.5,11.5,470.3,9.8,472.5,9.8z"
   class="st1" />
	<path
   style="fill:#cccccc;fill-opacity:1"
   id="path27"
   d="M526.5,9.8h38c2.2,0,4,1.8,4,4v38c0,2.2-1.8,4-4,4h-38c-2.2,0-4-1.8-4-4v-38C522.5,11.5,524.3,9.8,526.5,9.8z"
   class="st1" />
	<path
   style="fill:#cccccc;fill-opacity:1"
   id="path29"
   d="M607.5,9.8h38c2.2,0,4,1.8,4,4v38c0,2.2-1.8,4-4,4h-38c-2.2,0-4-1.8-4-4v-38C603.5,11.5,605.3,9.8,607.5,9.8z"
   class="st1" />
	<path
   style="fill:#cccccc;fill-opacity:1"
   id="path31"
   d="M661.5,9.8h38c2.2,0,4,1.8,4,4v38c0,2.2-1.8,4-4,4h-38c-2.2,0-4-1.8-4-4v-38C657.5,11.5,659.3,9.8,661.5,9.8z"
   class="st1" />
	<path
   style="fill:#cccccc;fill-opacity:1"
   id="path33"
   d="M715.5,9.8h38c2.2,0,4,1.8,4,4v38c0,2.2-1.8,4-4,4h-38c-2.2,0-4-1.8-4-4v-38C711.5,11.5,713.3,9.8,715.5,9.8z"
   class="st1" />
	<path
   style="fill:#cccccc;fill-opacity:1"
   id="path35"
   d="M769.5,9.8h38c2.2,0,4,1.8,4,4v38c0,2.2-1.8,4-4,4h-38c-2.2,0-4-1.8-4-4v-38C765.5,11.5,767.3,9.8,769.5,9.8z"
   class="st1" />
	<path
   style="fill:#cccccc;fill-opacity:1"
   id="path37"
   d="M837,9.8h38c2.2,0,4,1.8,4,4v38c0,2.2-1.8,4-4,4h-38c-2.2,0-4-1.8-4-4v-38C833,11.5,834.8,9.8,837,9.8z"
   class="st1" />
	<path
   style="fill:#cccccc;fill-opacity:1"
   id="path39"
   d="M891,9.8h38c2.2,0,4,1.8,4,4v38c0,2.2-1.8,4-4,4h-38c-2.2,0-4-1.8-4-4v-38C887,11.5,888.8,9.8,891,9.8z"
   class="st1" />
	<path
   style="fill:#cccccc;fill-opacity:1"
   id="path41"
   d="M945,9.8h38c2.2,0,4,1.8,4,4v38c0,2.2-1.8,4-4,4h-38c-2.2,0-4-1.8-4-4v-38C941,11.5,942.8,9.8,945,9.8z"
   class="st1" />
	<path
   style="fill:#cccccc;fill-opacity:1"
   id="path43"
   d="M13.5,77.2h38c2.2,0,4,1.8,4,4v38c0,2.2-1.8,4-4,4h-38c-2.2,0-4-1.8-4-4v-38C9.5,79,11.3,77.2,13.5,77.2z"
   class="st1" />
	<path
   style="fill:#cccccc;fill-opacity:1"
   id="path45"
   d="M67.5,77.2h38c2.2,0,4,1.8,4,4v38c0,2.2-1.8,4-4,4h-38c-2.2,0-4-1.8-4-4v-38C63.5,79,65.3,77.2,67.5,77.2z"
   class="st1" />
	<path
   style="fill:#cccccc;fill-opacity:1"
   id="path47"
   d="M121.5,77.2h38c2.2,0,4,1.8,4,4v38c0,2.2-1.8,4-4,4h-38c-2.2,0-4-1.8-4-4v-38C117.5,79,119.3,77.2,121.5,77.2z   "
   class="st1" />
	<path
   style="fill:#cccccc;fill-opacity:1"
   id="path49"
   d="M175.5,77.2h38c2.2,0,4,1.8,4,4v38c0,2.2-1.8,4-4,4h-38c-2.2,0-4-1.8-4-4v-38C171.5,79,173.3,77.2,175.5,77.2z   "
   class="st1" />
	<path
   style="fill:#cccccc;fill-opacity:1"
   id="path51"
   d="M229.5,77.2h38c2.2,0,4,1.8,4,4v38c0,2.2-1.8,4-4,4h-38c-2.2,0-4-1.8-4-4v-38C225.5,79,227.3,77.2,229.5,77.2z   "
   class="st1" />
	<path
   style="fill:#cccccc;fill-opacity:1"
   id="path53"
   d="M283.5,77.2h38c2.2,0,4,1.8,4,4v38c0,2.2-1.8,4-4,4h-38c-2.2,0-4-1.8-4-4v-38C279.5,79,281.3,77.2,283.5,77.2z   "
   class="st1" />
	<path
   style="fill:#cccccc;fill-opacity:1"
   id="path55"
   d="M337.5,77.2h38c2.2,0,4,1.8,4,4v38c0,2.2-1.8,4-4,4h-38c-2.2,0-4-1.8-4-4v-38C333.5,79,335.3,77.2,337.5,77.2z   "
   class="st1" />
	<path
   style="fill:#cccccc;fill-opacity:1"
   id="path57"
   d="M391.5,77.2h38c2.2,0,4,1.8,4,4v38c0,2.2-1.8,4-4,4h-38c-2.2,0-4-1.8-4-4v-38C387.5,79,389.3,77.2,391.5,77.2z   "
   class="st1" />
	<path
   style="fill:#cccccc;fill-opacity:1"
   id="path59"
   d="M445.5,77.2h38c2.2,0,4,1.8,4,4v38c0,2.2-1.8,4-4,4h-38c-2.2,0-4-1.8-4-4v-38C441.5,79,443.3,77.2,445.5,77.2z   "
   class="st1" />
	<path
   style="fill:#cccccc;fill-opacity:1"
   id="path61"
   d="M499.5,77.2h38c2.2,0,4,1.8,4,4v38c0,2.2-1.8,4-4,4h-38c-2.2,0-4-1.8-4-4v-38C495.5,79,497.3,77.2,499.5,77.2z   "
   class="st1" />
	<path
   style="fill:#cccccc;fill-opacity:1"
   id="path63"
   d="M553.5,77.2h38c2.2,0,4,1.8,4,4v38c0,2.2-1.8,4-4,4h-38c-2.2,0-4-1.8-4-4v-38C549.5,79,551.3,77.2,553.5,77.2z   "
   class="st1" />
	<path
   style="fill:#cccccc;fill-opacity:1"
   id="path65"
   d="M607.5,77.2h38c2.2,0,4,1.8,4,4v38c0,2.2-1.8,4-4,4h-38c-2.2,0-4-1.8-4-4v-38C603.5,79,605.3,77.2,607.5,77.2z   "
   class="st1" />
	<path
   style="fill:#cccccc;fill-opacity:1"
   id="path67"
   d="M661.5,77.2h38c2.2,0,4,1.8,4,4v38c0,2.2-1.8,4-4,4h-38c-2.2,0-4-1.8-4-4v-38C657.5,79,659.3,77.2,661.5,77.2z   "
   class="st1" />
	<path
   style="fill:#cccccc;fill-opacity:1"
   id="path69"
   d="M715.5,77.2h92c2.2,0,4,1.8,4,4v38c0,2.2-1.8,4-4,4h-92c-2.2,0-4-1.8-4-4v-38C711.5,79,713.3,77.2,715.5,77.2z   "
   class="st1" />
	<path
   style="fill:#cccccc;fill-opacity:1"
   id="path71"
   d="M837,77.2h38c2.2,0,4,1.8,4,4v38c0,2.2-1.8,4-4,4h-38c-2.2,0-4-1.8-4-4v-38C833,79,834.8,77.2,837,77.2z"
   class="st1" />
	<path
   style="fill:#cccccc;fill-opacity:1"
   id="path73"
   d="M891,77.2h38c2.2,0,4,1.8,4,4v38c0,2.2-1.8,4-4,4h-38c-2.2,0-4-1.8-4-4v-38C887,79,888.8,77.2,891,77.2z"
   class="st1" />
	<path
   style="fill:#cccccc;fill-opacity:1"
   id="path75"
   d="M945,77.2h38c2.2,0,4,1.8,4,4v38c0,2.2-1.8,4-4,4h-38c-2.2,0-4-1.8-4-4v-38C941,79,942.8,77.2,945,77.2z"
   class="st1" />
	<path
   style="fill:#cccccc;fill-opacity:1"
   id="path77"
   d="M1012.5,77.2h38c2.2,0,4,1.8,4,4v38c0,2.2-1.8,4-4,4h-38c-2.2,0-4-1.8-4-4v-38   C1008.5,79,1010.3,77.2,1012.5,77.2z"
   class="st1" />
	<path
   style="fill:#cccccc;fill-opacity:1"
   id="path79"
   d="M1066.5,77.2h38c2.2,0,4,1.8,4,4v38c0,2.2-1.8,4-4,4h-38c-2.2,0-4-1.8-4-4v-38   C1062.5,79,1064.3,77.2,1066.5,77.2z"
   class="st1" />
	<path
   style="fill:#cccccc;fill-opacity:1"
   id="path81"
   d="M1120.5,77.2h38c2.2,0,4,1.8,4,4v38c0,2.2-1.8,4-4,4h-38c-2.2,0-4-1.8-4-4v-38   C1116.5,79,1118.3,77.2,1120.5,77.2z"
   class="st1" />
	<path
   style="fill:#cccccc;fill-opacity:1"
   id="path83"
   d="M1174.5,77.2h38c2.2,0,4,1.8,4,4v38c0,2.2-1.8,4-4,4h-38c-2.2,0-4-1.8-4-4v-38   C1170.5,79,1172.3,77.2,1174.5,77.2z"
   class="st1" />
	<path
   style="fill:#cccccc;fill-opacity:1"
   id="path85"
   d="M13.5,131.2h65c2.2,0,4,1.8,4,4v38c0,2.2-1.8,4-4,4h-65c-2.2,0-4-1.8-4-4v-38C9.5,133,11.3,131.2,13.5,131.2z"
   class="st1" />
	<path
   style="fill:#cccccc;fill-opacity:1"
   id="path87"
   d="M94.5,131.2h38c2.2,0,4,1.8,4,4v38c0,2.2-1.8,4-4,4h-38c-2.2,0-4-1.8-4-4v-38C90.5,133,92.3,131.2,94.5,131.2z   "
   class="st1" />
	<path
   style="fill:#cccccc;fill-opacity:1"
   id="path89"
   d="M148.5,131.2h38c2.2,0,4,1.8,4,4v38c0,2.2-1.8,4-4,4h-38c-2.2,0-4-1.8-4-4v-38   C144.5,133,146.3,131.2,148.5,131.2z"
   class="st1" />
	<path
   style="fill:#cccccc;fill-opacity:1"
   id="path91"
   d="M202.5,131.2h38c2.2,0,4,1.8,4,4v38c0,2.2-1.8,4-4,4h-38c-2.2,0-4-1.8-4-4v-38   C198.5,133,200.3,131.2,202.5,131.2z"
   class="st1" />
	<path
   style="fill:#cccccc;fill-opacity:1"
   id="path93"
   d="M256.5,131.2h38c2.2,0,4,1.8,4,4v38c0,2.2-1.8,4-4,4h-38c-2.2,0-4-1.8-4-4v-38   C252.5,133,254.3,131.2,256.5,131.2z"
   class="st1" />
	<path
   style="fill:#cccccc;fill-opacity:1"
   id="path95"
   d="M310.5,131.2h38c2.2,0,4,1.8,4,4v38c0,2.2-1.8,4-4,4h-38c-2.2,0-4-1.8-4-4v-38   C306.5,133,308.3,131.2,310.5,131.2z"
   class="st1" />
	<path
   style="fill:#cccccc;fill-opacity:1"
   id="path97"
   d="M364.5,131.2h38c2.2,0,4,1.8,4,4v38c0,2.2-1.8,4-4,4h-38c-2.2,0-4-1.8-4-4v-38   C360.5,133,362.3,131.2,364.5,131.2z"
   class="st1" />
	<path
   style="fill:#cccccc;fill-opacity:1"
   id="path99"
   d="M418.5,131.2h38c2.2,0,4,1.8,4,4v38c0,2.2-1.8,4-4,4h-38c-2.2,0-4-1.8-4-4v-38   C414.5,133,416.3,131.2,418.5,131.2z"
   class="st1" />
	<path
   style="fill:#cccccc;fill-opacity:1"
   id="path101"
   d="M472.5,131.2h38c2.2,0,4,1.8,4,4v38c0,2.2-1.8,4-4,4h-38c-2.2,0-4-1.8-4-4v-38   C468.5,133,470.3,131.2,472.5,131.2z"
   class="st1" />
	<path
   style="fill:#cccccc;fill-opacity:1"
   id="path103"
   d="M526.5,131.2h38c2.2,0,4,1.8,4,4v38c0,2.2-1.8,4-4,4h-38c-2.2,0-4-1.8-4-4v-38   C522.5,133,524.3,131.2,526.5,131.2z"
   class="st1" />
	<path
   style="fill:#cccccc;fill-opacity:1"
   id="path105"
   d="M580.5,131.2h38c2.2,0,4,1.8,4,4v38c0,2.2-1.8,4-4,4h-38c-2.2,0-4-1.8-4-4v-38   C576.5,133,578.3,131.2,580.5,131.2z"
   class="st1" />
	<path
   style="fill:#cccccc;fill-opacity:1"
   id="path107"
   d="M634.5,131.2h38c2.2,0,4,1.8,4,4v38c0,2.2-1.8,4-4,4h-38c-2.2,0-4-1.8-4-4v-38   C630.5,133,632.3,131.2,634.5,131.2z"
   class="st1" />
	<path
   style="fill:#cccccc;fill-opacity:1"
   id="path109"
   d="M688.5,131.2h38c2.2,0,4,1.8,4,4v38c0,2.2-1.8,4-4,4h-38c-2.2,0-4-1.8-4-4v-38   C684.5,133,686.3,131.2,688.5,131.2z"
   class="st1" />
	<path
   style="fill:#cccccc;fill-opacity:1"
   id="path111"
   d="M742.5,131.2h65c2.2,0,4,1.8,4,4v38c0,2.2-1.8,4-4,4h-65c-2.2,0-4-1.8-4-4v-38   C738.5,133,740.3,131.2,742.5,131.2z"
   class="st1" />
	<path
   style="fill:#cccccc;fill-opacity:1"
   id="path113"
   d="M837,131.2h38c2.2,0,4,1.8,4,4v38c0,2.2-1.8,4-4,4h-38c-2.2,0-4-1.8-4-4v-38C833,133,834.8,131.2,837,131.2z"
   class="st1" />
	<path
   style="fill:#cccccc;fill-opacity:1"
   id="path115"
   d="M891,131.2h38c2.2,0,4,1.8,4,4v38c0,2.2-1.8,4-4,4h-38c-2.2,0-4-1.8-4-4v-38C887,133,888.8,131.2,891,131.2z"
   class="st1" />
	<path
   style="fill:#cccccc;fill-opacity:1"
   id="path117"
   d="M945,131.2h38c2.2,0,4,1.8,4,4v38c0,2.2-1.8,4-4,4h-38c-2.2,0-4-1.8-4-4v-38C941,133,942.8,131.2,945,131.2z"
   class="st1" />
	<path
   style="fill:#cccccc;fill-opacity:1"
   id="path119"
   d="M1012.5,131.2h38c2.2,0,4,1.8,4,4v38c0,2.2-1.8,4-4,4h-38c-2.2,0-4-1.8-4-4v-38   C1008.5,133,1010.3,131.2,1012.5,131.2z"
   class="st1" />
	<path
   style="fill:#cccccc;fill-opacity:1"
   id="path121"
   d="M1066.5,131.2h38c2.2,0,4,1.8,4,4v38c0,2.2-1.8,4-4,4h-38c-2.2,0-4-1.8-4-4v-38   C1062.5,133,1064.3,131.2,1066.5,131.2z"
   class="st1" />
	<path
   style="fill:#cccccc;fill-opacity:1"
   id="path123"
   d="M1120.5,131.2h38c2.2,0,4,1.8,4,4v38c0,2.2-1.8,4-4,4h-38c-2.2,0-4-1.8-4-4v-38   C1116.5,133,1118.3,131.2,1120.5,131.2z"
   class="st1" />
	<path
   style="fill:#cccccc;fill-opacity:1"
   id="path125"
   d="M1174.5,131.2h38c2.2,0,4,1.8,4,4v92c0,2.2-1.8,4-4,4h-38c-2.2,0-4-1.8-4-4v-92   C1170.5,133,1172.3,131.2,1174.5,131.2z"
   class="st1" />
	<path
   style="fill:#cccccc;fill-opacity:1"
   id="path127"
   d="M13.5,185.2H92c2.2,0,4,1.8,4,4v38c0,2.2-1.8,4-4,4H13.5c-2.2,0-4-1.8-4-4v-38C9.5,187,11.3,185.2,13.5,185.2z   "
   class="st1" />
	<path
   style="fill:#cccccc;fill-opacity:1"
   id="path129"
   d="M108,185.2h38c2.2,0,4,1.8,4,4v38c0,2.2-1.8,4-4,4h-38c-2.2,0-4-1.8-4-4v-38C104,187,105.8,185.2,108,185.2z"
   class="st1" />
	<path
   style="fill:#cccccc;fill-opacity:1"
   id="path131"
   d="M162,185.2h38c2.2,0,4,1.8,4,4v38c0,2.2-1.8,4-4,4h-38c-2.2,0-4-1.8-4-4v-38C158,187,159.8,185.2,162,185.2z"
   class="st1" />
	<path
   style="fill:#cccccc;fill-opacity:1"
   id="path133"
   d="M216,185.2h38c2.2,0,4,1.8,4,4v38c0,2.2-1.8,4-4,4h-38c-2.2,0-4-1.8-4-4v-38C212,187,213.8,185.2,216,185.2z"
   class="st1" />
	<path
   style="fill:#cccccc;fill-opacity:1"
   id="path135"
   d="M270,185.2h38c2.2,0,4,1.8,4,4v38c0,2.2-1.8,4-4,4h-38c-2.2,0-4-1.8-4-4v-38C266,187,267.8,185.2,270,185.2z"
   class="st1" />
	<path
   style="fill:#cccccc;fill-opacity:1"
   id="path137"
   d="M324,185.2h38c2.2,0,4,1.8,4,4v38c0,2.2-1.8,4-4,4h-38c-2.2,0-4-1.8-4-4v-38C320,187,321.8,185.2,324,185.2z"
   class="st1" />
	<path
   style="fill:#cccccc;fill-opacity:1"
   id="path139"
   d="M378,185.2h38c2.2,0,4,1.8,4,4v38c0,2.2-1.8,4-4,4h-38c-2.2,0-4-1.8-4-4v-38C374,187,375.8,185.2,378,185.2z"
   class="st1" />
	<path
   style="fill:#cccccc;fill-opacity:1"
   id="path141"
   d="M432,185.2h38c2.2,0,4,1.8,4,4v38c0,2.2-1.8,4-4,4h-38c-2.2,0-4-1.8-4-4v-38C428,187,429.8,185.2,432,185.2z"
   class="st1" />
	<path
   style="fill:#cccccc;fill-opacity:1"
   id="path143"
   d="M486,185.2h38c2.2,0,4,1.8,4,4v38c0,2.2-1.8,4-4,4h-38c-2.2,0-4-1.8-4-4v-38C482,187,483.8,185.2,486,185.2z"
   class="st1" />
	<path
   style="fill:#cccccc;fill-opacity:1"
   id="path145"
   d="M540,185.2h38c2.2,0,4,1.8,4,4v38c0,2.2-1.8,4-4,4h-38c-2.2,0-4-1.8-4-4v-38C536,187,537.8,185.2,540,185.2z"
   class="st1" />
	<path
   style="fill:#cccccc;fill-opacity:1"
   id="path147"
   d="M594,185.2h38c2.2,0,4,1.8,4,4v38c0,2.2-1.8,4-4,4h-38c-2.2,0-4-1.8-4-4v-38C590,187,591.8,185.2,594,185.2z"
   class="st1" />
	<path
   style="fill:#cccccc;fill-opacity:1"
   id="path149"
   d="M648,185.2h38c2.2,0,4,1.8,4,4v38c0,2.2-1.8,4-4,4h-38c-2.2,0-4-1.8-4-4v-38C644,187,645.8,185.2,648,185.2z"
   class="st1" />
	<path
   style="fill:#cccccc;fill-opacity:1"
   id="path151"
   d="M702,185.2h105.5c2.2,0,4,1.8,4,4v38c0,2.2-1.8,4-4,4H702c-2.2,0-4-1.8-4-4v-38C698,187,699.8,185.2,702,185.2   z"
   class="st2" />
	<path
   style="fill:#cccccc;fill-opacity:1"
   id="path153"
   d="M1012.5,185.2h38c2.2,0,4,1.8,4,4v38c0,2.2-1.8,4-4,4h-38c-2.2,0-4-1.8-4-4v-38   C1008.5,187,1010.3,185.2,1012.5,185.2z"
   class="st1" />
	<path
   style="fill:#cccccc;fill-opacity:1"
   id="path155"
   d="M1066.5,185.2h38c2.2,0,4,1.8,4,4v38c0,2.2-1.8,4-4,4h-38c-2.2,0-4-1.8-4-4v-38   C1062.5,187,1064.3,185.2,1066.5,185.2z"
   class="st1" />
	<path
   style="fill:#cccccc;fill-opacity:1"
   id="path157"
   d="M1120.5,185.2h38c2.2,0,4,1.8,4,4v38c0,2.2-1.8,4-4,4h-38c-2.2,0-4-1.8-4-4v-38   C1116.5,187,1118.3,185.2,1120.5,185.2z"
   class="st1" />
	<path
   style="fill:#cccccc;fill-opacity:1"
   id="path159"
   d="M13.5,239.2H119c2.2,0,4,1.8,4,4v38c0,2.2-1.8,4-4,4H13.5c-2.2,0-4-1.8-4-4v-38C9.5,241,11.3,239.2,13.5,239.2   z"
   class="st1" />
	<path
   style="fill:#cccccc;fill-opacity:1"
   id="path161"
   d="M135,239.2h38c2.2,0,4,1.8,4,4v38c0,2.2-1.8,4-4,4h-38c-2.2,0-4-1.8-4-4v-38C131,241,132.8,239.2,135,239.2z"
   class="st1" />
	<path
   style="fill:#cccccc;fill-opacity:1"
   id="path163"
   d="M189,239.2h38c2.2,0,4,1.8,4,4v38c0,2.2-1.8,4-4,4h-38c-2.2,0-4-1.8-4-4v-38C185,241,186.8,239.2,189,239.2z"
   class="st1" />
	<path
   style="fill:#cccccc;fill-opacity:1"
   id="path165"
   d="M243,239.2h38c2.2,0,4,1.8,4,4v38c0,2.2-1.8,4-4,4h-38c-2.2,0-4-1.8-4-4v-38C239,241,240.8,239.2,243,239.2z"
   class="st1" />
	<path
   style="fill:#cccccc;fill-opacity:1"
   id="path167"
   d="M297,239.2h38c2.2,0,4,1.8,4,4v38c0,2.2-1.8,4-4,4h-38c-2.2,0-4-1.8-4-4v-38C293,241,294.8,239.2,297,239.2z"
   class="st1" />
	<path
   style="fill:#cccccc;fill-opacity:1"
   id="path169"
   d="M351,239.2h38c2.2,0,4,1.8,4,4v38c0,2.2-1.8,4-4,4h-38c-2.2,0-4-1.8-4-4v-38C347,241,348.8,239.2,351,239.2z"
   class="st1" />
	<path
   style="fill:#cccccc;fill-opacity:1"
   id="path171"
   d="M405,239.2h38c2.2,0,4,1.8,4,4v38c0,2.2-1.8,4-4,4h-38c-2.2,0-4-1.8-4-4v-38C401,241,402.8,239.2,405,239.2z"
   class="st1" />
	<path
   style="fill:#cccccc;fill-opacity:1"
   id="path173"
   d="M459,239.2h38c2.2,0,4,1.8,4,4v38c0,2.2-1.8,4-4,4h-38c-2.2,0-4-1.8-4-4v-38C455,241,456.8,239.2,459,239.2z"
   class="st1" />
	<path
   style="fill:#cccccc;fill-opacity:1"
   id="path175"
   d="M513,239.2h38c2.2,0,4,1.8,4,4v38c0,2.2-1.8,4-4,4h-38c-2.2,0-4-1.8-4-4v-38C509,241,510.8,239.2,513,239.2z"
   class="st1" />
	<path
   style="fill:#cccccc;fill-opacity:1"
   id="path177"
   d="M567,239.2h38c2.2,0,4,1.8,4,4v38c0,2.2-1.8,4-4,4h-38c-2.2,0-4-1.8-4-4v-38C563,241,564.8,239.2,567,239.2z"
   class="st1" />
	<path
   style="fill:#cccccc;fill-opacity:1"
   id="path179"
   d="M621,239.2h38c2.2,0,4,1.8,4,4v38c0,2.2-1.8,4-4,4h-38c-2.2,0-4-1.8-4-4v-38C617,241,618.8,239.2,621,239.2z"
   class="st1" />
	<path
   style="fill:#cccccc;fill-opacity:1"
   id="path181"
   d="M675,239.2h132.5c2.2,0,4,1.8,4,4v38c0,2.2-1.8,4-4,4H675c-2.2,0-4-1.8-4-4v-38C671,241,672.8,239.2,675,239.2   z"
   class="st1" />
	<path
   style="fill:#cccccc;fill-opacity:1"
   id="path183"
   d="M891,239.2h38c2.2,0,4,1.8,4,4v38c0,2.2-1.8,4-4,4h-38c-2.2,0-4-1.8-4-4v-38C887,241,888.8,239.2,891,239.2z"
   class="st1" />
	<path
   style="fill:#cccccc;fill-opacity:1"
   id="path185"
   d="M1012.5,239.2h38c2.2,0,4,1.8,4,4v38c0,2.2-1.8,4-4,4h-38c-2.2,0-4-1.8-4-4v-38   C1008.5,241,1010.3,239.2,1012.5,239.2z"
   class="st1" />
	<path
   style="fill:#cccccc;fill-opacity:1"
   id="path187"
   d="M1066.5,239.2h38c2.2,0,4,1.8,4,4v38c0,2.2-1.8,4-4,4h-38c-2.2,0-4-1.8-4-4v-38   C1062.5,241,1064.3,239.2,1066.5,239.2z"
   class="st1" />
	<path
   style="fill:#cccccc;fill-opacity:1"
   id="path189"
   d="M1120.5,239.2h38c2.2,0,4,1.8,4,4v38c0,2.2-1.8,4-4,4h-38c-2.2,0-4-1.8-4-4v-38   C1116.5,241,1118.3,239.2,1120.5,239.2z"
   class="st1" />
	<path
   style="fill:#cccccc;fill-opacity:1"
   id="path191"
   d="M1174.5,239.2h38c2.2,0,4,1.8,4,4v92c0,2.2-1.8,4-4,4h-38c-2.2,0-4-1.8-4-4v-92   C1170.5,241,1172.3,239.2,1174.5,239.2z"
   class="st3" />
	<path
   style="fill:#cccccc;fill-opacity:1"
   id="path193"
   d="M13.5,293.2H65c2.2,0,4,1.8,4,4v38c0,2.2-1.8,4-4,4H13.5c-2.2,0-4-1.8-4-4v-38C9.5,295,11.3,293.2,13.5,293.2z   "
   class="st1" />
	<path
   style="fill:#cccccc;fill-opacity:1"
   id="path195"
   d="M81,293.2h51.5c2.2,0,4,1.8,4,4v38c0,2.2-1.8,4-4,4H81c-2.2,0-4-1.8-4-4v-38C77,295,78.8,293.2,81,293.2z"
   class="st1" />
	<path
   style="fill:#cccccc;fill-opacity:1"
   id="path197"
   d="M148.5,293.2H200c2.2,0,4,1.8,4,4v38c0,2.2-1.8,4-4,4h-51.5c-2.2,0-4-1.8-4-4v-38   C144.5,295,146.3,293.2,148.5,293.2z"
   class="st1" />
	<path
   style="fill:#cccccc;fill-opacity:1"
   id="path199"
   d="M216,293.2h321.5c2.2,0,4,1.8,4,4v38c0,2.2-1.8,4-4,4H216c-2.2,0-4-1.8-4-4v-38C212,295,213.8,293.2,216,293.2   z"
   class="st1" />
	<path
   style="fill:#cccccc;fill-opacity:1"
   id="path201"
   d="M553.5,293.2H605c2.2,0,4,1.8,4,4v38c0,2.2-1.8,4-4,4h-51.5c-2.2,0-4-1.8-4-4v-38   C549.5,295,551.3,293.2,553.5,293.2z"
   class="st1" />
	<path
   style="fill:#cccccc;fill-opacity:1"
   id="path203"
   d="M621,293.2h51.5c2.2,0,4,1.8,4,4v38c0,2.2-1.8,4-4,4H621c-2.2,0-4-1.8-4-4v-38C617,295,618.8,293.2,621,293.2z   "
   class="st1" />
	<path
   style="fill:#cccccc;fill-opacity:1"
   id="path205"
   d="M688.5,293.2H740c2.2,0,4,1.8,4,4v38c0,2.2-1.8,4-4,4h-51.5c-2.2,0-4-1.8-4-4v-38   C684.5,295,686.3,293.2,688.5,293.2z"
   class="st1" />
	<path
   style="fill:#cccccc;fill-opacity:1"
   id="path207"
   d="M756,293.2h51.5c2.2,0,4,1.8,4,4v38c0,2.2-1.8,4-4,4H756c-2.2,0-4-1.8-4-4v-38C752,295,753.8,293.2,756,293.2z   "
   class="st1" />
	<path
   style="fill:#cccccc;fill-opacity:1"
   id="path209"
   d="M837,293.2h38c2.2,0,4,1.8,4,4v38c0,2.2-1.8,4-4,4h-38c-2.2,0-4-1.8-4-4v-38C833,295,834.8,293.2,837,293.2z"
   class="st1" />
	<path
   style="fill:#cccccc;fill-opacity:1"
   id="path211"
   d="M891,293.2h38c2.2,0,4,1.8,4,4v38c0,2.2-1.8,4-4,4h-38c-2.2,0-4-1.8-4-4v-38C887,295,888.8,293.2,891,293.2z"
   class="st1" />
	<path
   style="fill:#cccccc;fill-opacity:1"
   id="path213"
   d="M945,293.2h38c2.2,0,4,1.8,4,4v38c0,2.2-1.8,4-4,4h-38c-2.2,0-4-1.8-4-4v-38C941,295,942.8,293.2,945,293.2z"
   class="st1" />
	<path
   style="fill:#cccccc;fill-opacity:1"
   id="path215"
   d="M1012.5,293.2h92c2.2,0,4,1.8,4,4v38c0,2.2-1.8,4-4,4h-92c-2.2,0-4-1.8-4-4v-38   C1008.5,295,1010.3,293.2,1012.5,293.2z"
   class="st1" />
	<path
   style="fill:#cccccc;fill-opacity:1"
   id="path217"
   d="M1120.5,293.2h38c2.2,0,4,1.8,4,4v38c0,2.2-1.8,4-4,4h-38c-2.2,0-4-1.8-4-4v-38   C1116.5,295,1118.3,293.2,1120.5,293.2z"
   class="st1" />
</g>
<path
   class="st4"
   d="m 14.5,10.8 h 36 c 2.2,0 4,1.8 4,4 v 34 c 0,2.2 -1.8,4 -4,4 h -36 c -2.2,0 -4,-1.8 -4,-4 v -34 c 0,-2.3 1.8,-4 4,-4 z"
   id="path220" /><path
   class="st4"
   d="m 122.5,10.8 h 36 c 2.2,0 4,1.8 4,4 v 34 c 0,2.2 -1.8,4 -4,4 h -36 c -2.2,0 -4,-1.8 -4,-4 v -34 c 0,-2.3 1.8,-4 4,-4 z"
   id="path222" /><path
   class="st4"
   d="m 176.5,10.8 h 36 c 2.2,0 4,1.8 4,4 v 34 c 0,2.2 -1.8,4 -4,4 h -36 c -2.2,0 -4,-1.8 -4,-4 v -34 c 0,-2.3 1.8,-4 4,-4 z"
   id="path224" /><path
   class="st4"
   d="m 230.5,10.8 h 36 c 2.2,0 4,1.8 4,4 v 34 c 0,2.2 -1.8,4 -4,4 h -36 c -2.2,0 -4,-1.8 -4,-4 v -34 c 0,-2.3 1.8,-4 4,-4 z"
   id="path226" /><path
   class="st4"
   d="m 284.5,10.8 h 36 c 2.2,0 4,1.8 4,4 v 34 c 0,2.2 -1.8,4 -4,4 h -36 c -2.2,0 -4,-1.8 -4,-4 v -34 c 0,-2.3 1.8,-4 4,-4 z"
   id="path228" /><path
   class="st4"
   d="m 365.5,10.8 h 36 c 2.2,0 4,1.8 4,4 v 34 c 0,2.2 -1.8,4 -4,4 h -36 c -2.2,0 -4,-1.8 -4,-4 v -34 c 0,-2.3 1.8,-4 4,-4 z"
   id="path230" /><path
   class="st4"
   d="m 419.5,10.8 h 36 c 2.2,0 4,1.8 4,4 v 34 c 0,2.2 -1.8,4 -4,4 h -36 c -2.2,0 -4,-1.8 -4,-4 v -34 c 0,-2.3 1.8,-4 4,-4 z"
   id="path232" /><path
   class="st4"
   d="m 473.5,10.8 h 36 c 2.2,0 4,1.8 4,4 v 34 c 0,2.2 -1.8,4 -4,4 h -36 c -2.2,0 -4,-1.8 -4,-4 v -34 c 0,-2.3 1.8,-4 4,-4 z"
   id="path234" /><path
   class="st4"
   d="m 527.5,10.8 h 36 c 2.2,0 4,1.8 4,4 v 34 c 0,2.2 -1.8,4 -4,4 h -36 c -2.2,0 -4,-1.8 -4,-4 v -34 c 0,-2.3 1.8,-4 4,-4 z"
   id="path236" /><path
   class="st4"
   d="m 608.5,10.8 h 36 c 2.2,0 4,1.8 4,4 v 34 c 0,2.2 -1.8,4 -4,4 h -36 c -2.2,0 -4,-1.8 -4,-4 v -34 c 0,-2.3 1.8,-4 4,-4 z"
   id="path238" /><path
   class="st4"
   d="m 662.5,10.8 h 36 c 2.2,0 4,1.8 4,4 v 34 c 0,2.2 -1.8,4 -4,4 h -36 c -2.2,0 -4,-1.8 -4,-4 v -34 c 0,-2.3 1.8,-4 4,-4 z"
   id="path240" /><path
   class="st4"
   d="m 716.5,10.8 h 36 c 2.2,0 4,1.8 4,4 v 34 c 0,2.2 -1.8,4 -4,4 h -36 c -2.2,0 -4,-1.8 -4,-4 v -34 c 0,-2.3 1.8,-4 4,-4 z"
   id="path242" /><path
   class="st4"
   d="m 770.5,10.8 h 36 c 2.2,0 4,1.8 4,4 v 34 c 0,2.2 -1.8,4 -4,4 h -36 c -2.2,0 -4,-1.8 -4,-4 v -34 c 0,-2.3 1.8,-4 4,-4 z"
   id="path244" /><path
   class="st4"
   d="m 838,10.8 h 36 c 2.2,0 4,1.8 4,4 v 34 c 0,2.2 -1.8,4 -4,4 h -36 c -2.2,0 -4,-1.8 -4,-4 v -34 c 0,-2.3 1.8,-4 4,-4 z"
   id="path246" /><path
   class="st4"
   d="m 892,10.8 h 36 c 2.2,0 4,1.8 4,4 v 34 c 0,2.2 -1.8,4 -4,4 h -36 c -2.2,0 -4,-1.8 -4,-4 v -34 c 0,-2.3 1.8,-4 4,-4 z"
   id="path248" /><path
   class="st4"
   d="m 946,10.8 h 36 c 2.2,0 4,1.8 4,4 v 34 c 0,2.2 -1.8,4 -4,4 h -36 c -2.2,0 -4,-1.8 -4,-4 v -34 c 0,-2.3 1.8,-4 4,-4 z"
   id="path250" /><path
   class="st4"
   d="m 14.5,78.2 h 36 c 2.2,0 4,1.8 4,4 v 34 c 0,2.2 -1.8,4 -4,4 h -36 c -2.2,0 -4,-1.8 -4,-4 v -34 c 0,-2.2 1.8,-4 4,-4 z"
   id="path252" /><path
   class="st4"
   d="m 68.5,78.2 h 36 c 2.2,0 4,1.8 4,4 v 34 c 0,2.2 -1.8,4 -4,4 h -36 c -2.2,0 -4,-1.8 -4,-4 v -34 c 0,-2.2 1.8,-4 4,-4 z"
   id="path254" /><path
   class="st4"
   d="m 122.5,78.2 h 36 c 2.2,0 4,1.8 4,4 v 34 c 0,2.2 -1.8,4 -4,4 h -36 c -2.2,0 -4,-1.8 -4,-4 v -34 c 0,-2.2 1.8,-4 4,-4 z"
   id="path256" /><path
   class="st4"
   d="m 176.5,78.2 h 36 c 2.2,0 4,1.8 4,4 v 34 c 0,2.2 -1.8,4 -4,4 h -36 c -2.2,0 -4,-1.8 -4,-4 v -34 c 0,-2.2 1.8,-4 4,-4 z"
   id="path258" /><path
   class="st4"
   d="m 230.5,78.2 h 36 c 2.2,0 4,1.8 4,4 v 34 c 0,2.2 -1.8,4 -4,4 h -36 c -2.2,0 -4,-1.8 -4,-4 v -34 c 0,-2.2 1.8,-4 4,-4 z"
   id="path260" /><path
   class="st4"
   d="m 284.5,78.2 h 36 c 2.2,0 4,1.8 4,4 v 34 c 0,2.2 -1.8,4 -4,4 h -36 c -2.2,0 -4,-1.8 -4,-4 v -34 c 0,-2.2 1.8,-4 4,-4 z"
   id="path262" /><path
   class="st4"
   d="m 338.5,78.2 h 36 c 2.2,0 4,1.8 4,4 v 34 c 0,2.2 -1.8,4 -4,4 h -36 c -2.2,0 -4,-1.8 -4,-4 v -34 c 0,-2.2 1.8,-4 4,-4 z"
   id="path264" /><path
   class="st4"
   d="m 392.5,78.2 h 36 c 2.2,0 4,1.8 4,4 v 34 c 0,2.2 -1.8,4 -4,4 h -36 c -2.2,0 -4,-1.8 -4,-4 v -34 c 0,-2.2 1.8,-4 4,-4 z"
   id="path266" /><path
   class="st4"
   d="m 446.5,78.2 h 36 c 2.2,0 4,1.8 4,4 v 34 c 0,2.2 -1.8,4 -4,4 h -36 c -2.2,0 -4,-1.8 -4,-4 v -34 c 0,-2.2 1.8,-4 4,-4 z"
   id="path268" /><path
   class="st4"
   d="m 500.5,78.2 h 36 c 2.2,0 4,1.8 4,4 v 34 c 0,2.2 -1.8,4 -4,4 h -36 c -2.2,0 -4,-1.8 -4,-4 v -34 c 0,-2.2 1.8,-4 4,-4 z"
   id="path270" /><path
   class="st4"
   d="m 554.5,78.2 h 36 c 2.2,0 4,1.8 4,4 v 34 c 0,2.2 -1.8,4 -4,4 h -36 c -2.2,0 -4,-1.8 -4,-4 v -34 c 0,-2.2 1.8,-4 4,-4 z"
   id="path272" /><path
   class="st4"
   d="m 608.5,78.2 h 36 c 2.2,0 4,1.8 4,4 v 34 c 0,2.2 -1.8,4 -4,4 h -36 c -2.2,0 -4,-1.8 -4,-4 v -34 c 0,-2.2 1.8,-4 4,-4 z"
   id="path274" /><path
   class="st4"
   d="m 662.5,78.2 h 36 c 2.2,0 4,1.8 4,4 v 34 c 0,2.2 -1.8,4 -4,4 h -36 c -2.2,0 -4,-1.8 -4,-4 v -34 c 0,-2.2 1.8,-4 4,-4 z"
   id="path276" /><path
   class="st4"
   d="m 716.5,78.2 h 90 c 2.2,0 4,1.8 4,4 v 34 c 0,2.2 -1.8,4 -4,4 h -90 c -2.2,0 -4,-1.8 -4,-4 v -34 c 0,-2.2 1.8,-4 4,-4 z"
   id="path278" /><path
   class="st4"
   d="m 838,78.2 h 36 c 2.2,0 4,1.8 4,4 v 34 c 0,2.2 -1.8,4 -4,4 h -36 c -2.2,0 -4,-1.8 -4,-4 v -34 c 0,-2.2 1.8,-4 4,-4 z"
   id="path280" /><path
   class="st4"
   d="m 892,78.2 h 36 c 2.2,0 4,1.8 4,4 v 34 c 0,2.2 -1.8,4 -4,4 h -36 c -2.2,0 -4,-1.8 -4,-4 v -34 c 0,-2.2 1.8,-4 4,-4 z"
   id="path282" /><path
   class="st4"
   d="m 946,78.2 h 36 c 2.2,0 4,1.8 4,4 v 34 c 0,2.2 -1.8,4 -4,4 h -36 c -2.2,0 -4,-1.8 -4,-4 v -34 c 0,-2.2 1.8,-4 4,-4 z"
   id="path284" /><path
   class="st4"
   d="m 1013.5,78.2 h 36 c 2.2,0 4,1.8 4,4 v 34 c 0,2.2 -1.8,4 -4,4 h -36 c -2.2,0 -4,-1.8 -4,-4 v -34 c 0,-2.2 1.8,-4 4,-4 z"
   id="path286" /><path
   class="st4"
   d="m 1067.5,78.2 h 36 c 2.2,0 4,1.8 4,4 v 34 c 0,2.2 -1.8,4 -4,4 h -36 c -2.2,0 -4,-1.8 -4,-4 v -34 c 0,-2.2 1.8,-4 4,-4 z"
   id="path288" /><path
   class="st4"
   d="m 1121.5,78.2 h 36 c 2.2,0 4,1.8 4,4 v 34 c 0,2.2 -1.8,4 -4,4 h -36 c -2.2,0 -4,-1.8 -4,-4 v -34 c 0,-2.2 1.8,-4 4,-4 z"
   id="path290" /><path
   class="st4"
   d="m 1175.5,78.2 h 36 c 2.2,0 4,1.8 4,4 v 34 c 0,2.2 -1.8,4 -4,4 h -36 c -2.2,0 -4,-1.8 -4,-4 v -34 c 0,-2.2 1.8,-4 4,-4 z"
   id="path292" /><path
   class="st4"
   d="m 14.5,132.2 h 63 c 2.2,0 4,1.8 4,4 v 34 c 0,2.2 -1.8,4 -4,4 h -63 c -2.2,0 -4,-1.8 -4,-4 v -34 c 0,-2.2 1.8,-4 4,-4 z"
   id="path294" /><path
   class="st4"
   d="m 95.5,132.2 h 36 c 2.2,0 4,1.8 4,4 v 34 c 0,2.2 -1.8,4 -4,4 h -36 c -2.2,0 -4,-1.8 -4,-4 v -34 c 0,-2.2 1.8,-4 4,-4 z"
   id="path296" /><path
   class="st4"
   d="m 149.5,132.2 h 36 c 2.2,0 4,1.8 4,4 v 34 c 0,2.2 -1.8,4 -4,4 h -36 c -2.2,0 -4,-1.8 -4,-4 v -34 c 0,-2.2 1.8,-4 4,-4 z"
   id="path298" /><path
   class="st4"
   d="m 203.5,132.2 h 36 c 2.2,0 4,1.8 4,4 v 34 c 0,2.2 -1.8,4 -4,4 h -36 c -2.2,0 -4,-1.8 -4,-4 v -34 c 0,-2.2 1.8,-4 4,-4 z"
   id="path300" /><path
   class="st4"
   d="m 257.5,132.2 h 36 c 2.2,0 4,1.8 4,4 v 34 c 0,2.2 -1.8,4 -4,4 h -36 c -2.2,0 -4,-1.8 -4,-4 v -34 c 0,-2.2 1.8,-4 4,-4 z"
   id="path302" /><path
   class="st4"
   d="m 311.5,132.2 h 36 c 2.2,0 4,1.8 4,4 v 34 c 0,2.2 -1.8,4 -4,4 h -36 c -2.2,0 -4,-1.8 -4,-4 v -34 c 0,-2.2 1.8,-4 4,-4 z"
   id="path304" /><path
   class="st4"
   d="m 365.5,132.2 h 36 c 2.2,0 4,1.8 4,4 v 34 c 0,2.2 -1.8,4 -4,4 h -36 c -2.2,0 -4,-1.8 -4,-4 v -34 c 0,-2.2 1.8,-4 4,-4 z"
   id="path306" /><path
   class="st4"
   d="m 419.5,132.2 h 36 c 2.2,0 4,1.8 4,4 v 34 c 0,2.2 -1.8,4 -4,4 h -36 c -2.2,0 -4,-1.8 -4,-4 v -34 c 0,-2.2 1.8,-4 4,-4 z"
   id="path308" /><path
   class="st4"
   d="m 473.5,132.2 h 36 c 2.2,0 4,1.8 4,4 v 34 c 0,2.2 -1.8,4 -4,4 h -36 c -2.2,0 -4,-1.8 -4,-4 v -34 c 0,-2.2 1.8,-4 4,-4 z"
   id="path310" /><path
   class="st4"
   d="m 527.5,132.2 h 36 c 2.2,0 4,1.8 4,4 v 34 c 0,2.2 -1.8,4 -4,4 h -36 c -2.2,0 -4,-1.8 -4,-4 v -34 c 0,-2.2 1.8,-4 4,-4 z"
   id="path312" /><path
   class="st4"
   d="m 581.5,132.2 h 36 c 2.2,0 4,1.8 4,4 v 34 c 0,2.2 -1.8,4 -4,4 h -36 c -2.2,0 -4,-1.8 -4,-4 v -34 c 0,-2.2 1.8,-4 4,-4 z"
   id="path314" /><path
   class="st4"
   d="m 635.5,132.2 h 36 c 2.2,0 4,1.8 4,4 v 34 c 0,2.2 -1.8,4 -4,4 h -36 c -2.2,0 -4,-1.8 -4,-4 v -34 c 0,-2.2 1.8,-4 4,-4 z"
   id="path316" /><path
   class="st4"
   d="m 689.5,132.2 h 36 c 2.2,0 4,1.8 4,4 v 34 c 0,2.2 -1.8,4 -4,4 h -36 c -2.2,0 -4,-1.8 -4,-4 v -34 c 0,-2.2 1.8,-4 4,-4 z"
   id="path318" /><path
   class="st4"
   d="m 743.5,132.2 h 63 c 2.2,0 4,1.8 4,4 v 34 c 0,2.2 -1.8,4 -4,4 h -63 c -2.2,0 -4,-1.8 -4,-4 v -34 c 0,-2.2 1.8,-4 4,-4 z"
   id="path320" /><path
   class="st4"
   d="m 838,132.2 h 36 c 2.2,0 4,1.8 4,4 v 34 c 0,2.2 -1.8,4 -4,4 h -36 c -2.2,0 -4,-1.8 -4,-4 v -34 c 0,-2.2 1.8,-4 4,-4 z"
   id="path322" /><path
   class="st4"
   d="m 892,132.2 h 36 c 2.2,0 4,1.8 4,4 v 34 c 0,2.2 -1.8,4 -4,4 h -36 c -2.2,0 -4,-1.8 -4,-4 v -34 c 0,-2.2 1.8,-4 4,-4 z"
   id="path324" /><path
   class="st4"
   d="m 946,132.2 h 36 c 2.2,0 4,1.8 4,4 v 34 c 0,2.2 -1.8,4 -4,4 h -36 c -2.2,0 -4,-1.8 -4,-4 v -34 c 0,-2.2 1.8,-4 4,-4 z"
   id="path326" /><path
   class="st4"
   d="m 1013.5,132.2 h 36 c 2.2,0 4,1.8 4,4 v 34 c 0,2.2 -1.8,4 -4,4 h -36 c -2.2,0 -4,-1.8 -4,-4 v -34 c 0,-2.2 1.8,-4 4,-4 z"
   id="path328" /><path
   class="st4"
   d="m 1067.5,132.2 h 36 c 2.2,0 4,1.8 4,4 v 34 c 0,2.2 -1.8,4 -4,4 h -36 c -2.2,0 -4,-1.8 -4,-4 v -34 c 0,-2.2 1.8,-4 4,-4 z"
   id="path330" /><path
   class="st4"
   d="m 1121.5,132.2 h 36 c 2.2,0 4,1.8 4,4 v 34 c 0,2.2 -1.8,4 -4,4 h -36 c -2.2,0 -4,-1.8 -4,-4 v -34 c 0,-2.2 1.8,-4 4,-4 z"
   id="path332" /><path
   class="st4"
   d="m 1175.5,132.2 h 36 c 2.2,0 4,1.8 4,4 v 88 c 0,2.2 -1.8,4 -4,4 h -36 c -2.2,0 -4,-1.8 -4,-4 v -88 c 0,-2.2 1.8,-4 4,-4 z"
   id="path334" /><path
   class="st4"
   d="M 14.5,186.2 H 91 c 2.2,0 4,1.8 4,4 v 34 c 0,2.2 -1.8,4 -4,4 H 14.5 c -2.2,0 -4,-1.8 -4,-4 v -34 c 0,-2.2 1.8,-4 4,-4 z"
   id="path336" /><path
   class="st4"
   d="m 109,186.2 h 36 c 2.2,0 4,1.8 4,4 v 34 c 0,2.2 -1.8,4 -4,4 h -36 c -2.2,0 -4,-1.8 -4,-4 v -34 c 0,-2.2 1.8,-4 4,-4 z"
   id="path338" /><path
   class="st4"
   d="m 163,186.2 h 36 c 2.2,0 4,1.8 4,4 v 34 c 0,2.2 -1.8,4 -4,4 h -36 c -2.2,0 -4,-1.8 -4,-4 v -34 c 0,-2.2 1.8,-4 4,-4 z"
   id="path340" /><path
   class="st4"
   d="m 217,186.2 h 36 c 2.2,0 4,1.8 4,4 v 34 c 0,2.2 -1.8,4 -4,4 h -36 c -2.2,0 -4,-1.8 -4,-4 v -34 c 0,-2.2 1.8,-4 4,-4 z"
   id="path342" /><path
   class="st4"
   d="m 271,186.2 h 36 c 2.2,0 4,1.8 4,4 v 34 c 0,2.2 -1.8,4 -4,4 h -36 c -2.2,0 -4,-1.8 -4,-4 v -34 c 0,-2.2 1.8,-4 4,-4 z"
   id="path344" /><path
   class="st4"
   d="m 325,186.2 h 36 c 2.2,0 4,1.8 4,4 v 34 c 0,2.2 -1.8,4 -4,4 h -36 c -2.2,0 -4,-1.8 -4,-4 v -34 c 0,-2.2 1.8,-4 4,-4 z"
   id="path346" /><path
   class="st4"
   d="m 379,186.2 h 36 c 2.2,0 4,1.8 4,4 v 34 c 0,2.2 -1.8,4 -4,4 h -36 c -2.2,0 -4,-1.8 -4,-4 v -34 c 0,-2.2 1.8,-4 4,-4 z"
   id="path348" /><path
   class="st4"
   d="m 433,186.2 h 36 c 2.2,0 4,1.8 4,4 v 34 c 0,2.2 -1.8,4 -4,4 h -36 c -2.2,0 -4,-1.8 -4,-4 v -34 c 0,-2.2 1.8,-4 4,-4 z"
   id="path350" /><path
   class="st4"
   d="m 487,186.2 h 36 c 2.2,0 4,1.8 4,4 v 34 c 0,2.2 -1.8,4 -4,4 h -36 c -2.2,0 -4,-1.8 -4,-4 v -34 c 0,-2.2 1.8,-4 4,-4 z"
   id="path352" /><path
   class="st4"
   d="m 541,186.2 h 36 c 2.2,0 4,1.8 4,4 v 34 c 0,2.2 -1.8,4 -4,4 h -36 c -2.2,0 -4,-1.8 -4,-4 v -34 c 0,-2.2 1.8,-4 4,-4 z"
   id="path354" /><path
   class="st4"
   d="m 595,186.2 h 36 c 2.2,0 4,1.8 4,4 v 34 c 0,2.2 -1.8,4 -4,4 h -36 c -2.2,0 -4,-1.8 -4,-4 v -34 c 0,-2.2 1.8,-4 4,-4 z"
   id="path356" /><path
   class="st4"
   d="m 649,186.2 h 36 c 2.2,0 4,1.8 4,4 v 34 c 0,2.2 -1.8,4 -4,4 h -36 c -2.2,0 -4,-1.8 -4,-4 v -34 c 0,-2.2 1.8,-4 4,-4 z"
   id="path358" /><path
   style="fill:#fcfcfc;fill-opacity:1"
   class="st5"
   d="m 703,186.2 h 103.5 c 2.2,0 4,1.8 4,4 v 34 c 0,2.2 -1.8,4 -4,4 H 703 c -2.2,0 -4,-1.8 -4,-4 v -34 c 0,-2.2 1.8,-4 4,-4 z"
   id="path360" /><path
   class="st4"
   d="m 1013.5,186.2 h 36 c 2.2,0 4,1.8 4,4 v 34 c 0,2.2 -1.8,4 -4,4 h -36 c -2.2,0 -4,-1.8 -4,-4 v -34 c 0,-2.2 1.8,-4 4,-4 z"
   id="path362" /><path
   class="st4"
   d="m 1067.5,186.2 h 36 c 2.2,0 4,1.8 4,4 v 34 c 0,2.2 -1.8,4 -4,4 h -36 c -2.2,0 -4,-1.8 -4,-4 v -34 c 0,-2.2 1.8,-4 4,-4 z"
   id="path364" /><path
   class="st4"
   d="m 1121.5,186.2 h 36 c 2.2,0 4,1.8 4,4 v 34 c 0,2.2 -1.8,4 -4,4 h -36 c -2.2,0 -4,-1.8 -4,-4 v -34 c 0,-2.2 1.8,-4 4,-4 z"
   id="path366" /><path
   class="st4"
   d="M 14.5,240.2 H 118 c 2.2,0 4,1.8 4,4 v 34 c 0,2.2 -1.8,4 -4,4 H 14.5 c -2.2,0 -4,-1.8 -4,-4 v -34 c 0,-2.2 1.8,-4 4,-4 z"
   id="path368" /><path
   class="st4"
   d="m 136,240.2 h 36 c 2.2,0 4,1.8 4,4 v 34 c 0,2.2 -1.8,4 -4,4 h -36 c -2.2,0 -4,-1.8 -4,-4 v -34 c 0,-2.2 1.8,-4 4,-4 z"
   id="path370" /><path
   class="st4"
   d="m 190,240.2 h 36 c 2.2,0 4,1.8 4,4 v 34 c 0,2.2 -1.8,4 -4,4 h -36 c -2.2,0 -4,-1.8 -4,-4 v -34 c 0,-2.2 1.8,-4 4,-4 z"
   id="path372" /><path
   class="st4"
   d="m 244,240.2 h 36 c 2.2,0 4,1.8 4,4 v 34 c 0,2.2 -1.8,4 -4,4 h -36 c -2.2,0 -4,-1.8 -4,-4 v -34 c 0,-2.2 1.8,-4 4,-4 z"
   id="path374" /><path
   class="st4"
   d="m 298,240.2 h 36 c 2.2,0 4,1.8 4,4 v 34 c 0,2.2 -1.8,4 -4,4 h -36 c -2.2,0 -4,-1.8 -4,-4 v -34 c 0,-2.2 1.8,-4 4,-4 z"
   id="path376" /><path
   class="st4"
   d="m 352,240.2 h 36 c 2.2,0 4,1.8 4,4 v 34 c 0,2.2 -1.8,4 -4,4 h -36 c -2.2,0 -4,-1.8 -4,-4 v -34 c 0,-2.2 1.8,-4 4,-4 z"
   id="path378" /><path
   class="st4"
   d="m 406,240.2 h 36 c 2.2,0 4,1.8 4,4 v 34 c 0,2.2 -1.8,4 -4,4 h -36 c -2.2,0 -4,-1.8 -4,-4 v -34 c 0,-2.2 1.8,-4 4,-4 z"
   id="path380" /><path
   class="st4"
   d="m 460,240.2 h 36 c 2.2,0 4,1.8 4,4 v 34 c 0,2.2 -1.8,4 -4,4 h -36 c -2.2,0 -4,-1.8 -4,-4 v -34 c 0,-2.2 1.8,-4 4,-4 z"
   id="path382" /><path
   class="st4"
   d="m 514,240.2 h 36 c 2.2,0 4,1.8 4,4 v 34 c 0,2.2 -1.8,4 -4,4 h -36 c -2.2,0 -4,-1.8 -4,-4 v -34 c 0,-2.2 1.8,-4 4,-4 z"
   id="path384" /><path
   class="st4"
   d="m 568,240.2 h 36 c 2.2,0 4,1.8 4,4 v 34 c 0,2.2 -1.8,4 -4,4 h -36 c -2.2,0 -4,-1.8 -4,-4 v -34 c 0,-2.2 1.8,-4 4,-4 z"
   id="path386" /><path
   class="st4"
   d="m 622,240.2 h 36 c 2.2,0 4,1.8 4,4 v 34 c 0,2.2 -1.8,4 -4,4 h -36 c -2.2,0 -4,-1.8 -4,-4 v -34 c 0,-2.2 1.8,-4 4,-4 z"
   id="path388" /><path
   class="st4"
   d="m 676,240.2 h 130.5 c 2.2,0 4,1.8 4,4 v 34 c 0,2.2 -1.8,4 -4,4 H 676 c -2.2,0 -4,-1.8 -4,-4 v -34 c 0,-2.2 1.8,-4 4,-4 z"
   id="path390" /><path
   class="st4"
   d="m 892,240.2 h 36 c 2.2,0 4,1.8 4,4 v 34 c 0,2.2 -1.8,4 -4,4 h -36 c -2.2,0 -4,-1.8 -4,-4 v -34 c 0,-2.2 1.8,-4 4,-4 z"
   id="path392" /><path
   class="st4"
   d="m 1013.5,240.2 h 36 c 2.2,0 4,1.8 4,4 v 34 c 0,2.2 -1.8,4 -4,4 h -36 c -2.2,0 -4,-1.8 -4,-4 v -34 c 0,-2.2 1.8,-4 4,-4 z"
   id="path394" /><path
   class="st4"
   d="m 1067.5,240.2 h 36 c 2.2,0 4,1.8 4,4 v 34 c 0,2.2 -1.8,4 -4,4 h -36 c -2.2,0 -4,-1.8 -4,-4 v -34 c 0,-2.2 1.8,-4 4,-4 z"
   id="path396" /><path
   class="st4"
   d="m 1121.5,240.2 h 36 c 2.2,0 4,1.8 4,4 v 34 c 0,2.2 -1.8,4 -4,4 h -36 c -2.2,0 -4,-1.8 -4,-4 v -34 c 0,-2.2 1.8,-4 4,-4 z"
   id="path398" /><path
   class="st6"
   d="m 1175.5,240.2 h 36 c 2.2,0 4,1.8 4,4 v 88 c 0,2.2 -1.8,4 -4,4 h -36 c -2.2,0 -4,-1.8 -4,-4 v -88 c 0,-2.2 1.8,-4 4,-4 z"
   id="path400" /><path
   class="st4"
   d="M 14.5,294.2 H 64 c 2.2,0 4,1.8 4,4 v 34 c 0,2.2 -1.8,4 -4,4 H 14.5 c -2.2,0 -4,-1.8 -4,-4 v -34 c 0,-2.2 1.8,-4 4,-4 z"
   id="path402" /><path
   class="st4"
   d="m 82,294.2 h 49.5 c 2.2,0 4,1.8 4,4 v 34 c 0,2.2 -1.8,4 -4,4 H 82 c -2.2,0 -4,-1.8 -4,-4 v -34 c 0,-2.2 1.8,-4 4,-4 z"
   id="path404" /><path
   class="st4"
   d="M 149.5,294.2 H 199 c 2.2,0 4,1.8 4,4 v 34 c 0,2.2 -1.8,4 -4,4 h -49.5 c -2.2,0 -4,-1.8 -4,-4 v -34 c 0,-2.2 1.8,-4 4,-4 z"
   id="path406" /><path
   class="st4"
   d="m 217,294.2 h 319.5 c 2.2,0 4,1.8 4,4 v 34 c 0,2.2 -1.8,4 -4,4 H 217 c -2.2,0 -4,-1.8 -4,-4 v -34 c 0,-2.2 1.8,-4 4,-4 z"
   id="path408" /><path
   class="st4"
   d="M 554.5,294.2 H 604 c 2.2,0 4,1.8 4,4 v 34 c 0,2.2 -1.8,4 -4,4 h -49.5 c -2.2,0 -4,-1.8 -4,-4 v -34 c 0,-2.2 1.8,-4 4,-4 z"
   id="path410" /><path
   class="st4"
   d="m 622,294.2 h 49.5 c 2.2,0 4,1.8 4,4 v 34 c 0,2.2 -1.8,4 -4,4 H 622 c -2.2,0 -4,-1.8 -4,-4 v -34 c 0,-2.2 1.8,-4 4,-4 z"
   id="path412" /><path
   class="st4"
   d="M 689.5,294.2 H 739 c 2.2,0 4,1.8 4,4 v 34 c 0,2.2 -1.8,4 -4,4 h -49.5 c -2.2,0 -4,-1.8 -4,-4 v -34 c 0,-2.2 1.8,-4 4,-4 z"
   id="path414" /><path
   class="st4"
   d="m 757,294.2 h 49.5 c 2.2,0 4,1.8 4,4 v 34 c 0,2.2 -1.8,4 -4,4 H 757 c -2.2,0 -4,-1.8 -4,-4 v -34 c 0,-2.2 1.8,-4 4,-4 z"
   id="path416" /><path
   class="st4"
   d="m 838,294.2 h 36 c 2.2,0 4,1.8 4,4 v 34 c 0,2.2 -1.8,4 -4,4 h -36 c -2.2,0 -4,-1.8 -4,-4 v -34 c 0,-2.2 1.8,-4 4,-4 z"
   id="path418" /><path
   class="st4"
   d="m 892,294.2 h 36 c 2.2,0 4,1.8 4,4 v 34 c 0,2.2 -1.8,4 -4,4 h -36 c -2.2,0 -4,-1.8 -4,-4 v -34 c 0,-2.2 1.8,-4 4,-4 z"
   id="path420" /><path
   class="st4"
   d="m 946,294.2 h 36 c 2.2,0 4,1.8 4,4 v 34 c 0,2.2 -1.8,4 -4,4 h -36 c -2.2,0 -4,-1.8 -4,-4 v -34 c 0,-2.2 1.8,-4 4,-4 z"
   id="path422" /><path
   class="st4"
   d="m 1013.5,294.2 h 90 c 2.2,0 4,1.8 4,4 v 34 c 0,2.2 -1.8,4 -4,4 h -90 c -2.2,0 -4,-1.8 -4,-4 v -34 c 0,-2.2 1.8,-4 4,-4 z"
   id="path424" /><path
   class="st4"
   d="m 1121.5,294.2 h 36 c 2.2,0 4,1.8 4,4 v 34 c 0,2.2 -1.8,4 -4,4 h -36 c -2.2,0 -4,-1.8 -4,-4 v -34 c 0,-2.2 1.8,-4 4,-4 z"
   id="path426" />
<path
   id="path429"
   d="m 141.4,29.3 h -3.9 v 2.1 h 2.3 v 1.2 h -2.3 V 36 h -1.2 v -7.9 h 5.1 z" /><path
   id="path431"
   d="m 144.7,36 h -1.2 v -6.1 h -1.4 v -0.8 c 0.8,-0.1 1.5,-0.3 1.6,-1 h 1 z" /><path
   id="path435"
   d="m 193.8,29.3 h -3.9 v 2.1 h 2.3 v 1.2 h -2.3 V 36 h -1.2 v -7.9 h 5.1 z" /><path
   id="path437"
   d="m 200.4,36 h -5.7 c 0.1,-2.3 1.5,-3.4 3,-4.3 1.1,-0.6 1.3,-1 1.3,-1.5 0,-0.6 -0.4,-1 -1.5,-1 -0.7,0 -1.4,0.3 -1.9,0.8 L 195,29 c 0.7,-0.7 1.7,-1.1 2.7,-1.1 1.6,0 2.7,0.7 2.7,2.2 0,1.2 -0.6,1.7 -2,2.6 -1.5,0.9 -1.9,1.4 -2.1,2.2 h 4.2 V 36 Z" /><path
   id="path441"
   d="M 247.9,29.3 H 244 v 2.1 h 2.3 v 1.2 H 244 V 36 h -1.2 v -7.9 h 5.1 z" /><path
   id="path443"
   d="m 254.5,33.7 c 0,1.6 -1.1,2.5 -3,2.5 -1.1,0 -2.3,-0.5 -2.9,-1.3 l 0.9,-0.8 c 0.5,0.6 1.2,0.9 2,0.9 1.3,0 1.7,-0.5 1.7,-1.3 0,-0.8 -0.6,-1.2 -1.4,-1.2 h -0.7 v -1.2 h 0.7 c 0.7,0 1.1,-0.5 1.1,-1.1 0,-0.5 -0.3,-1.1 -1.5,-1.1 -0.6,0 -1.1,0.3 -1.6,0.7 L 249,29 c 0.7,-0.7 1.5,-1.1 2.5,-1.1 1.5,0 2.7,0.8 2.7,2.2 0,1 -0.4,1.4 -1,1.7 0.7,0.3 1.3,0.9 1.3,1.9 z" /><path
   id="path447"
   d="m 301.6,29.3 h -3.9 v 2.1 h 2.3 v 1.2 h -2.3 V 36 h -1.2 v -7.9 h 5.1 z" /><path
   id="path449"
   d="m 309,34.2 h -1.1 V 36 h -1.2 v -1.7 h -4.3 v -1.1 l 4.1,-5.1 h 1.4 v 5.1 h 1.1 z m -2.2,-4.8 c -0.1,0.2 -0.5,0.6 -0.7,0.9 l -1.5,1.9 c -0.2,0.3 -0.6,0.7 -0.7,0.9 0.3,0 0.9,0 1.3,0 h 1.7 v -2.3 c -0.1,-0.4 -0.1,-1.1 -0.1,-1.4 z" /><path
   id="path453"
   d="m 382.7,29.3 h -3.9 v 2.1 h 2.3 v 1.2 h -2.3 V 36 h -1.2 v -7.9 h 5.1 z" /><path
   id="path455"
   d="m 389.7,33.3 c 0,1.9 -1.3,2.8 -3.1,2.8 -1,0 -1.9,-0.2 -2.8,-0.8 l 0.6,-1 c 0.7,0.4 1.5,0.6 2.2,0.6 1.2,0 1.9,-0.6 1.9,-1.6 0,-0.9 -0.6,-1.4 -1.6,-1.4 -0.7,0 -1.1,0.2 -1.5,0.5 l -1.3,-0.5 0.3,-3.9 h 4.9 v 1.1 h -3.8 l -0.2,2 c 0.4,-0.2 1,-0.4 1.7,-0.4 1.8,0.1 2.7,1.2 2.7,2.6 z" /><path
   id="path459"
   d="m 436.7,29.3 h -3.9 v 2.1 h 2.3 v 1.2 h -2.3 V 36 h -1.2 v -7.9 h 5.1 z" /><path
   id="path461"
   d="m 443.9,33.5 c 0,1.7 -1.4,2.6 -3.1,2.6 -1.7,0 -3,-0.9 -3,-3.2 0,-2.1 1.2,-4.9 4.9,-5 V 29 c -1.8,0.1 -3.1,0.9 -3.6,2.6 0.6,-0.4 1.1,-0.6 2.1,-0.6 1.5,0 2.7,0.8 2.7,2.5 z m -1.2,0 c 0,-1 -0.7,-1.4 -1.8,-1.4 -1.2,0 -1.9,0.5 -1.9,1.4 0,0.8 0.6,1.5 1.8,1.5 1.2,0 1.9,-0.6 1.9,-1.5 z" /><path
   id="path465"
   d="m 491,29.3 h -3.9 v 2.1 h 2.3 v 1.2 h -2.3 V 36 h -1.2 v -7.9 h 5.1 z" /><path
   id="path467"
   d="m 497.2,29.3 c -1.3,1.5 -2.6,3.8 -2.6,6.7 h -1.2 c 0,-2.7 1,-4.9 2.5,-6.8 h -4.2 V 28 h 5.5 z" /><path
   id="path471"
   d="m 544.5,29.3 h -3.9 v 2.1 h 2.3 v 1.2 h -2.3 V 36 h -1.2 v -7.9 h 5.1 z" /><path
   id="path473"
   d="m 551.9,33.7 c 0,1.6 -1.2,2.4 -3.1,2.4 -1.9,0 -3.1,-0.9 -3.1,-2.4 0,-1 0.5,-1.6 1.4,-2 -0.8,-0.3 -1.1,-1.1 -1.1,-1.5 0,-1.5 1.2,-2.2 2.8,-2.2 1.4,0 2.8,0.7 2.8,2.2 0,0.5 -0.2,1.2 -1.1,1.6 0.9,0.3 1.4,0.9 1.4,1.9 z m -1.2,0 c 0,-0.8 -0.6,-1.4 -1.9,-1.4 -1.3,0 -1.9,0.5 -1.9,1.3 0,0.8 0.7,1.4 1.9,1.4 1.3,0.1 1.9,-0.5 1.9,-1.3 z m -0.3,-3.5 c 0,-0.6 -0.4,-1.2 -1.6,-1.2 -1.2,0 -1.6,0.5 -1.6,1.1 0,0.6 0.6,1.1 1.6,1.1 1,0.1 1.6,-0.4 1.6,-1 z" /><path
   id="path477"
   d="m 625.7,29.3 h -3.9 v 2.1 h 2.3 v 1.2 h -2.3 V 36 h -1.2 v -7.9 h 5.1 z" /><path
   id="path479"
   d="m 632.8,31.1 c 0,2.1 -1.2,4.9 -4.9,5 V 35 c 1.8,-0.1 3.1,-0.9 3.6,-2.6 -0.6,0.4 -1.1,0.6 -2.1,0.6 -1.4,0 -2.7,-0.8 -2.7,-2.5 0,-1.7 1.4,-2.6 3.1,-2.6 1.7,0.1 3,1 3,3.2 z m -1.2,-0.5 c 0,-0.8 -0.6,-1.5 -1.8,-1.5 -1.2,0 -1.9,0.6 -1.9,1.5 0,1 0.7,1.4 1.8,1.4 1.2,0 1.9,-0.5 1.9,-1.4 z" /><path
   id="path483"
   d="m 677.7,29.3 h -3.9 v 2.1 h 2.3 v 1.2 h -2.3 V 36 h -1.2 v -7.9 h 5.1 z" /><path
   id="path485"
   d="m 680.9,36 h -1.2 v -6.1 h -1.4 v -0.8 c 0.8,-0.1 1.5,-0.3 1.6,-1 h 1 z" /><path
   id="path487"
   d="m 688.9,32 c 0,2.4 -1.1,4.1 -3.1,4.1 -2,0 -3.1,-1.7 -3.1,-4.1 0,-2.4 1.1,-4.1 3.1,-4.1 2,0.1 3.1,1.7 3.1,4.1 z m -1.2,0.1 c 0,-1.7 -0.5,-2.9 -1.9,-2.9 -1.4,0 -1.9,1.3 -1.9,2.9 0,1.6 0.6,2.9 1.9,2.9 1.3,0 1.9,-1.3 1.9,-2.9 z" /><path
   id="path491"
   d="m 733.5,29.3 h -3.9 v 2.1 h 2.3 v 1.2 h -2.3 V 36 h -1.2 v -7.9 h 5.1 z" /><path
   id="path493"
   d="m 736.7,36 h -1.2 v -6.1 h -1.4 v -0.8 c 0.8,-0.1 1.5,-0.3 1.6,-1 h 1 z" /><path
   id="path495"
   d="m 740.6,36 h -1.2 V 29.9 H 738 v -0.8 c 0.8,-0.1 1.5,-0.3 1.6,-1 h 1 z" /><path
   id="path499"
   d="m 785.8,29.3 h -3.9 v 2.1 h 2.3 v 1.2 h -2.3 V 36 h -1.2 v -7.9 h 5.1 z" /><path
   id="path501"
   d="m 789.1,36 h -1.2 v -6.1 h -1.4 v -0.8 c 0.8,-0.1 1.5,-0.3 1.6,-1 h 1 z" /><path
   id="path503"
   d="m 796.4,36 h -5.7 c 0.1,-2.3 1.5,-3.4 3,-4.3 1.1,-0.6 1.3,-1 1.3,-1.5 0,-0.6 -0.4,-1 -1.5,-1 -0.7,0 -1.4,0.3 -1.9,0.8 l -0.8,-0.9 c 0.7,-0.7 1.7,-1.1 2.7,-1.1 1.6,0 2.7,0.7 2.7,2.2 0,1.2 -0.6,1.7 -2,2.6 -1.5,0.9 -2,1.4 -2.1,2.2 h 4.2 v 1 z" /><path
   id="path507"
   d="m 35.9,89.7 c -0.5,1.3 -1.1,2 -2.2,2 -0.6,0 -0.9,-0.2 -1.4,-0.5 -0.6,-0.4 -0.9,-0.6 -1.2,-0.6 -0.5,0 -0.7,0.3 -1,1.1 l -1,-0.5 c 0.5,-1.3 1.1,-2 2.2,-2 0.6,0 0.9,0.2 1.4,0.5 0.5,0.4 0.9,0.6 1.2,0.6 0.5,0 0.7,-0.3 1.1,-1.1 z" /><path
   id="path509"
   d="m 33.9,104.2 h -1.2 l -2.3,-2.3 h 2 z" /><path
   id="path513"
   d="m -62.819525,-135.9511 c 0,0.6 -0.5,1.1 -1.1,1.1 -0.6,0 -1.1,-0.5 -1.1,-1.1 0,-0.6 0.5,-1.1 1.1,-1.1 0.6,0 1.1,0.5 1.1,1.1 z m -0.3,-4.6 -0.3,2.6 h -1 l -0.3,-2.7 v -4.4 h 1.5 v 4.5 z" /><path
   id="path515"
   d="m -62.819525,-118.0511 h -1.5 v -7.6 h -1.8 v -1 c 1,-0.1 1.9,-0.4 2,-1.3 h 1.2 v 9.9 z" /><path
   id="path519"
   d="m -4.8195251,-141.6511 c 0,2.1 -0.9,2.9 -2.2,2.9 -0.7,0 -1.3,-0.4 -1.5,-0.9 -0.3,0.5 -1.1,0.9 -1.7999999,0.9 -1.1,0 -2.2,-0.6 -2.2,-1.9 0,-1.2 1.1,-1.8 2.3,-1.8 0.5999999,0 1.0999999,0.2 1.3999999,0.4 v -0.7 c 0,-0.6 -0.5,-0.8 -1.2999999,-0.8 -0.5,0 -1,0.1 -1.4,0.3 l -0.4,-0.7 c 0.5,-0.3 1.2,-0.5 1.8,-0.5 1.2999999,0 2.1999999,0.6 2.1999999,1.7 v 2.4 c 0,0.5 0.3,0.9 0.9,0.9 0.9,0 1.2,-0.7 1.2,-2.1 0,-2.3 -1.8,-4.2 -4.2999999,-4.2 -2.5,0 -4.3,1.8 -4.3,4.3 0,2.5 1.8,4.3 4.3,4.3 0.5999999,0 1.1999999,-0.1 1.7999999,-0.4 l 0.3,0.8 c -0.8,0.4 -1.4,0.5 -2.1999999,0.5 -3,0 -5.1,-2.2 -5.1,-5.1 0,-3 2.2,-5.1 5.1,-5.1 3.2999999,-0.1 5.3999999,2.2 5.3999999,4.8 z m -3.9,1.3 v -0.9 c -0.3,-0.2 -0.8,-0.4 -1.4999999,-0.4 -0.8,0 -1.3,0.3 -1.3,1 0,0.7 0.5,1.1 1.4,1.1 0.4999999,0 1.0999999,-0.3 1.3999999,-0.8 z" /><path
   id="path521"
   d="m -6.6195251,-119.4511 h -7.0999999 c 0.1,-2.9 1.9,-4.2 3.7999999,-5.4 1.3,-0.8 1.7,-1.2 1.7,-1.9 0,-0.8 -0.5,-1.3 -1.8999999,-1.3 -0.8,0 -1.8,0.4 -2.4,1 l -0.9,-1.1 c 0.9,-0.8 2.2,-1.3 3.4,-1.3 2.0999999,0 3.3999999,0.9 3.3999999,2.7 0,1.5 -0.8,2.2 -2.5,3.2 -1.8999999,1.1 -2.3999999,1.8 -2.6999999,2.7 h 5.2999999 v 1.4 z" /><path
   id="path525"
   d="m 48.380475,-137.3511 h -1.7 v 2.3 h -1.4 v -2.3 h -2.3 v 2.3 h -1.4 v -2.3 h -1.7 v -1.3 h 1.7 v -2.7 h -1.7 v -1.4 h 1.7 v -2.3 h 1.4 v 2.3 h 2.3 v -2.3 h 1.4 v 2.3 h 1.7 v 1.3 h -1.7 v 2.7 h 1.7 z m -3.1,-1.3 v -2.7 h -2.3 v 2.7 z" /><path
   id="path527"
   d="m 47.380475,-121.0511 c 0,2 -1.4,3.1 -3.7,3.1 -1.4,0 -2.9,-0.6 -3.6,-1.6 l 1.1,-1 c 0.6,0.8 1.5,1.1 2.4,1.1 1.6,0 2.2,-0.6 2.2,-1.6 0,-1 -0.8,-1.5 -1.8,-1.5 h -0.9 v -1.4 h 0.9 c 0.9,0 1.4,-0.6 1.4,-1.4 0,-0.6 -0.4,-1.4 -1.9,-1.4 -0.8,0 -1.4,0.3 -2,0.9 l -1.1,-1 c 0.8,-0.9 1.8,-1.3 3.1,-1.3 1.9,0 3.4,1 3.4,2.7 0,1.2 -0.5,1.8 -1.2,2.2 1.1,0.2 1.7,1 1.7,2.2 z" /><path
   id="path531"
   d="m 101.58047,-138.0511 c 0,1.6 -0.9,2.7 -2.799995,2.9 v 1.4 h -1.5 v -1.4 c -1.2,-0.2 -2.3,-0.7 -2.9,-1.6 l 1.1,-1 c 0.7,0.8 1.6,1.1 2.5,1.1 1.4,0 2,-0.5 2,-1.3 0,-0.8 -0.6,-1.1 -2.2,-1.6 -2.1,-0.6 -3.1,-1.1 -3.1,-2.9 0,-1.5 1.1,-2.4 2.5,-2.6 v -1.5 h 1.5 v 1.5 c 1,0.2 1.799995,0.6 2.499995,1.3 l -1,1 c -0.699995,-0.6 -1.299995,-1 -2.299995,-1 -1.1,0 -1.6,0.5 -1.6,1.1 0,0.7 0.4,1 2.1,1.5 1.999995,0.8 3.199995,1.3 3.199995,3.1 z" /><path
   id="path533"
   d="m 102.08047,-120.2511 h -1.3 v 2.2 h -1.399995 v -2.2 h -5.4 v -1.4 l 5.1,-6.3 h 1.699995 v 6.4 h 1.3 z m -2.699995,-6.1 c -0.2,0.3 -0.6,0.8 -0.9,1.2 l -1.9,2.4 c -0.3,0.4 -0.7,0.9 -0.9,1.1 0.3,0 1.1,0 1.6,0 h 2.1 v -2.9 c -0.1,-0.5 0,-1.4 0,-1.8 z" /><path
   id="path537"
   d="m 150.78047,-142.0511 c 0,1.8 -1,3.1 -2.5,3.1 -1.5,0 -2.4,-1.3 -2.4,-3.1 0,-1.8 1,-3.1 2.5,-3.1 1.4,0 2.4,1.3 2.4,3.1 z m -1.3,0 c 0,-1.1 -0.4,-1.9 -1.2,-1.9 -0.8,0 -1.2,0.7 -1.2,1.8 0,1.1 0.4,1.9 1.2,1.9 0.8,0 1.2,-0.8 1.2,-1.8 z m 6.4,-3 -6.1,9.9 h -1.4 l 6.1,-9.9 z m 2.4,7 c 0,1.8 -1,3.1 -2.5,3.1 -1.4,0 -2.4,-1.3 -2.4,-3.1 0,-1.8 1,-3.1 2.5,-3.1 1.5,0.1 2.4,1.3 2.4,3.1 z m -1.2,0.1 c 0,-1.1 -0.4,-1.9 -1.2,-1.9 -0.8,0 -1.2,0.7 -1.2,1.8 0,1.1 0.4,1.9 1.2,1.9 0.7,0 1.2,-0.8 1.2,-1.8 z" /><path
   id="path539"
   d="m 155.68047,-121.4511 c 0,2.4 -1.6,3.5 -3.9,3.5 -1.3,0 -2.4,-0.3 -3.5,-1 l 0.7,-1.2 c 0.8,0.5 1.9,0.8 2.8,0.8 1.5,0 2.4,-0.8 2.4,-2 0,-1.2 -0.8,-1.8 -2,-1.8 -0.8,0 -1.4,0.2 -1.9,0.6 l -1.6,-0.6 0.3,-4.8 h 6.1 v 1.4 h -4.8 l -0.2,2.5 c 0.6,-0.3 1.2,-0.5 2.1,-0.5 2.4,0 3.5,1.3 3.5,3.1 z" /><path
   id="path543"
   d="m 209.48047,-140.4511 h -1.6 l -1.8,-3 -1.8,3 h -1.6 l 2.9,-4.5 h 1.1 z" /><path
   id="path545"
   d="m 209.98047,-121.2511 c 0,2.2 -1.7,3.3 -3.9,3.3 -2.1,0 -3.7,-1.1 -3.7,-4 0,-2.6 1.4,-6.1 6.2,-6.3 v 1.4 c -2.3,0.1 -3.8,1.1 -4.5,3.2 0.7,-0.6 1.4,-0.8 2.6,-0.8 1.8,0.1 3.3,1.1 3.3,3.2 z m -1.5,0.1 c 0,-1.2 -0.8,-1.7 -2.3,-1.7 -1.4,0 -2.3,0.6 -2.3,1.7 0,1 0.8,1.8 2.3,1.8 1.5,0 2.3,-0.7 2.3,-1.8 z" /><path
   id="path549"
   d="m 264.48047,-135.0511 h -1.7 l -0.8,-0.9 c -0.7,0.7 -1.7,1.1 -2.8,1.1 -2.1,0 -3.1,-1.1 -3.1,-2.7 0,-1.3 0.7,-2.2 2.1,-2.9 l -0.2,-0.2 c -0.7,-0.8 -0.9,-1.4 -0.9,-2.1 0,-1.4 1.1,-2.3 2.8,-2.3 0.9,0 1.8,0.3 2.7,0.9 l -0.7,1.2 c -0.8,-0.6 -1.3,-0.8 -2.1,-0.8 -0.8,0 -1.1,0.3 -1.1,0.9 0,0.4 0.1,0.7 0.5,1.2 l 2.9,3.6 c 0.3,-0.5 0.5,-1.1 0.7,-1.6 l 1.3,0.4 c -0.2,0.8 -0.6,1.7 -1.1,2.4 z m -3.4,-2 -2.1,-2.5 c -0.9,0.5 -1.4,1 -1.4,1.9 0,0.8 0.5,1.4 1.7,1.4 0.7,0 1.3,-0.3 1.8,-0.8 z" /><path
   id="path551"
   d="m 263.18047,-126.4511 c -1.7,1.9 -3.2,4.7 -3.3,8.4 h -1.5 c 0.1,-3.4 1.2,-6.1 3.1,-8.5 h -5.2 v -1.4 h 6.9 z" /><path
   id="path555"
   d="m 316.88047,-141.2511 -0.6,1.1 -1.8,-1.3 0.2,2.2 h -1.2 l 0.2,-2.2 -1.8,1.3 -0.6,-1.1 2,-0.9 -2,-0.9 0.6,-1.1 1.8,1.3 -0.2,-2.2 h 1.2 l -0.2,2.1 1.7,-1.3 0.6,1.1 -2,0.9 z" /><path
   id="path557"
   d="m 317.98047,-120.9511 c 0,2 -1.5,3 -3.9,3 -2.4,0 -3.9,-1.1 -3.9,-3 0,-1.2 0.6,-2 1.8,-2.5 -1,-0.4 -1.3,-1.3 -1.3,-1.9 0,-1.9 1.5,-2.8 3.5,-2.8 1.8,0 3.5,0.9 3.5,2.8 0,0.6 -0.3,1.5 -1.3,1.9 0.9,0.4 1.6,1.2 1.6,2.5 z m -1.5,0 c 0,-1 -0.8,-1.7 -2.4,-1.7 -1.6,0 -2.4,0.6 -2.4,1.6 0,1 0.9,1.7 2.4,1.7 1.6,0.1 2.4,-0.6 2.4,-1.6 z m -0.4,-4.4 c 0,-0.8 -0.5,-1.5 -2,-1.5 -1.4,0 -2,0.7 -2,1.4 0,0.8 0.8,1.4 2,1.4 1.3,0 2,-0.6 2,-1.3 z" /><path
   id="path561"
   d="m 369.88047,-134.1511 -0.7,0.6 c -1.4,-1.3 -2.8,-3.2 -2.8,-5.8 0,-2.7 1.3,-4.5 2.8,-5.9 l 0.7,0.6 c -1.3,1.4 -2,3 -2,5.2 0.1,2.4 0.8,3.9 2,5.3 z" /><path
   id="path563"
   d="m 371.78047,-124.1511 c 0,2.6 -1.4,6.1 -6.2,6.3 v -1.4 c 2.3,-0.1 3.8,-1.1 4.5,-3.2 -0.7,0.6 -1.4,0.8 -2.6,0.8 -1.8,0 -3.3,-1 -3.3,-3.1 0,-2.2 1.7,-3.3 3.9,-3.3 2.1,-0.1 3.7,1 3.7,3.9 z m -1.5,-0.7 c 0,-1 -0.8,-1.8 -2.3,-1.8 -1.5,0 -2.3,0.7 -2.3,1.8 0,1.2 0.8,1.7 2.3,1.7 1.4,0 2.3,-0.6 2.3,-1.7 z" /><path
   id="path567"
   d="m 423.78047,-139.4511 c 0,2.7 -1.3,4.5 -2.8,5.9 l -0.7,-0.6 c 1.3,-1.4 2,-3 2,-5.2 0,-2.3 -0.8,-3.9 -2,-5.2 l 0.7,-0.6 c 1.4,1.3 2.8,3.2 2.8,5.7 z" /><path
   id="path569"
   d="m 425.98047,-123.0511 c 0,3 -1.4,5.1 -3.9,5.1 -2.6,0 -3.9,-2.1 -3.9,-5.1 0,-3 1.4,-5.1 3.9,-5.1 2.6,0 3.9,2.1 3.9,5.1 z m -1.5,0 c 0,-2.1 -0.7,-3.7 -2.4,-3.7 -1.7,0 -2.4,1.6 -2.4,3.7 0,2.1 0.7,3.7 2.4,3.7 1.8,0 2.4,-1.6 2.4,-3.7 z" /><path
   id="path573"
   d="m 479.58047,-132.5511 h -7 v -1.3 h 7.1 v 1.3 z" /><path
   id="path575"
   d="m 477.88047,-122.5511 h -3.5 v -1.4 h 3.5 z" /><path
   id="path579"
   d="m 533.48047,-139.2511 h -2.7 v 2.8 h -1.5 v -2.8 h -2.7 v -1.4 h 2.7 v -2.8 h 1.5 v 2.8 h 2.7 z" /><path
   id="path581"
   d="m 533.18047,-123.8511 h -6.1 v -1.4 h 6.1 z m 0,3.2 h -6.1 v -1.4 h 6.1 z" /><path
   id="path585"
   d="m 1088.4,93 -4.4,12.5 h -1.5 L 1087,93 Z" /><path
   id="path589"
   d="m 1136.4,98.2 0.7,-1.2 1.9,1.4 -0.2,-2.4 h 1.4 l -0.2,2.4 1.9,-1.4 0.7,1.2 -2.2,1 2.2,1 -0.7,1.2 -1.9,-1.4 0.2,2.4 h -1.4 l 0.2,-2.4 -1.9,1.4 -0.7,-1.2 2.2,-1 z" /><path
   id="path593"
   d="m 1189.9,98.4 h 7.2 v 1.6 h -7.2 z" /><path
   id="path605"
   d="m 405.70216,-25.55199 h -6.6 v -9.9 h 6.4 v 1.4 h -4.9 v 2.5 h 2.8 v 1.4 h -2.8 v 3.1 h 5.1 z" /><path
   id="path649"
   d="m 775.7,152.3 h -1.3 v -14 h 1.3 z" /><path
   id="path651"
   d="m 777.9,168 h -1.5 L 772,155.5 h 1.5 z" /><path
   id="path655"
   d="m 1034.6,149.8 c -1.7,1.9 -3.2,4.7 -3.3,8.4 h -1.5 c 0.1,-3.4 1.2,-6.1 3.1,-8.5 h -5.2 v -1.4 h 6.9 z" /><path
   id="path659"
   d="m 1089.4,155.3 c 0,2 -1.5,3 -3.9,3 -2.4,0 -3.9,-1.1 -3.9,-3 0,-1.2 0.6,-2 1.8,-2.5 -1,-0.4 -1.3,-1.3 -1.3,-1.9 0,-1.9 1.5,-2.8 3.5,-2.8 1.8,0 3.5,0.9 3.5,2.8 0,0.6 -0.3,1.5 -1.3,1.9 0.9,0.4 1.6,1.2 1.6,2.5 z m -1.5,0 c 0,-1 -0.8,-1.7 -2.4,-1.7 -1.6,0 -2.4,0.6 -2.4,1.6 0,1 0.9,1.7 2.4,1.7 1.6,0.1 2.4,-0.6 2.4,-1.6 z m -0.4,-4.4 c 0,-0.8 -0.5,-1.5 -2,-1.5 -1.4,0 -2,0.7 -2,1.4 0,0.8 0.8,1.4 2,1.4 1.3,0 2,-0.6 2,-1.3 z" /><path
   id="path663"
   d="m 1143.2,152 c 0,2.6 -1.4,6.1 -6.2,6.3 v -1.4 c 2.3,-0.1 3.8,-1.1 4.5,-3.2 -0.7,0.6 -1.4,0.8 -2.6,0.8 -1.8,0 -3.3,-1 -3.3,-3.1 0,-2.2 1.7,-3.3 3.9,-3.3 2.1,0 3.7,1.1 3.7,3.9 z m -1.5,-0.6 c 0,-1 -0.8,-1.8 -2.3,-1.8 -1.5,0 -2.3,0.7 -2.3,1.8 0,1.2 0.8,1.7 2.3,1.7 1.4,0 2.3,-0.6 2.3,-1.7 z" /><path
   id="path667"
   d="m 1197.3,182 h -3 v 3 h -1.6 v -3 h -3 v -1.6 h 3 v -3 h 1.6 v 3 h 3 z" /><path
   id="path671"
   d="m 473.74292,-34.83587 h -1.6 l -0.8,-2.4 h -4 l -0.8,2.4 h -1.5 l 3.6,-9.9 h 1.6 z m -2.9,-3.7 -0.8,-2.3 c -0.2,-0.7 -0.6,-1.9 -0.8,-2.3 -0.1,0.4 -0.5,1.6 -0.7,2.3 l -0.8,2.3 z" /><path
   id="path679"
   d="m 267.97334,-34.498675 c 0,3.5 -2.2,5 -4.8,5 h -2.7 v -9.9 h 2.7 c 2.7,-0.1 4.8,1.4 4.8,4.9 z m -1.5,0 c 0,-2.1 -1,-3.5 -3.3,-3.5 h -1.2 v 7 h 1.2 c 2.3,0 3.3,-1.4 3.3,-3.5 z" /><path
   id="path687"
   d="m 540.66392,-42.548152 c 0,2.6 -1.6,4 -3.8,4 -2.6,0 -4.2,-2.1 -4.2,-5.1 0,-3 1.6,-5.1 4.2,-5.1 1.6,0 2.7,0.7 3.4,1.9 l -1.3,0.8 c -0.5,-0.8 -1,-1.2 -2.1,-1.2 -1.7,0 -2.7,1.4 -2.7,3.6 0,2.2 0.9,3.6 2.7,3.6 1.6,0 2.3,-1.1 2.3,-2.2 v 0 h -1.6 v -1.4 h 3.1 z" /><path
   id="path719"
   d="m 1035.5,209.9 h -1.3 v 2.2 h -1.4 V 210 h -5.4 v -1.4 l 5.1,-6.3 h 1.7 v 6.4 h 1.3 z m -2.7,-6 c -0.2,0.3 -0.6,0.8 -0.9,1.2 l -1.9,2.4 c -0.3,0.4 -0.7,0.9 -0.9,1.1 0.3,0 1.1,0 1.6,0 h 2.1 v -2.9 c -0.1,-0.5 0,-1.4 0,-1.8 z" /><path
   id="path723"
   d="m 1089.1,208.8 c 0,2.4 -1.6,3.5 -3.9,3.5 -1.3,0 -2.4,-0.3 -3.5,-1 l 0.7,-1.2 c 0.8,0.5 1.9,0.8 2.8,0.8 1.5,0 2.4,-0.8 2.4,-2 0,-1.2 -0.8,-1.8 -2,-1.8 -0.8,0 -1.4,0.2 -1.9,0.6 l -1.6,-0.6 0.3,-4.8 h 6.1 v 1.4 h -4.8 l -0.2,2.5 c 0.6,-0.3 1.2,-0.5 2.1,-0.5 2.4,0 3.5,1.3 3.5,3.1 z" /><path
   id="path727"
   d="m 1143.4,209 c 0,2.2 -1.7,3.3 -3.9,3.3 -2.1,0 -3.7,-1.1 -3.7,-4 0,-2.6 1.4,-6.1 6.2,-6.3 v 1.4 c -2.3,0.1 -3.8,1.1 -4.5,3.2 0.7,-0.6 1.4,-0.8 2.6,-0.8 1.8,0.1 3.3,1.1 3.3,3.2 z m -1.5,0.1 c 0,-1.2 -0.8,-1.7 -2.3,-1.7 -1.4,0 -2.3,0.6 -2.3,1.7 0,1 0.8,1.8 2.3,1.8 1.5,0 2.3,-0.7 2.3,-1.8 z" /><path
   id="path747"
   d="m 377.61228,-24.346059 c 0,2 -1.2,3 -3.4,3 h -3.9 v -9.9 h 4.1 c 1.7,0 2.8,0.9 2.8,2.6 0,1 -0.5,1.6 -1.3,2 0.9,0.2 1.7,1 1.7,2.3 z m -1.8,-4.2 c 0,-0.7 -0.4,-1.3 -1.4,-1.3 h -2.7 v 2.6 h 2.7 c 1,0 1.4,-0.6 1.4,-1.3 z m 0.4,4.3 c 0,-1 -0.6,-1.6 -1.8,-1.6 h -2.7 v 3.3 h 2.7 c 1.3,-0.1 1.8,-0.8 1.8,-1.7 z" /><path
   id="path777"
   d="m 912.4,259.8 c -0.1,0.2 -0.2,0.2 -0.4,0.2 l -1.2,-0.4 v 8.6 h -1.7 v -8.6 L 908,260 c -0.2,0.1 -0.3,0 -0.4,-0.2 -0.1,-0.1 -0.1,-0.2 0,-0.4 l 2.4,-3.4 2.4,3.4 c 0.1,0.2 0.1,0.3 0,0.4 z" /><path
   id="path781"
   d="m 1032.6,266.2 h -1.5 v -7.6 h -1.8 v -1 c 1,-0.1 1.9,-0.4 2,-1.3 h 1.2 v 9.9 z" /><path
   id="path785"
   d="m 1088.8,266.2 h -7.1 c 0.1,-2.9 1.9,-4.2 3.8,-5.4 1.3,-0.8 1.7,-1.2 1.7,-1.9 0,-0.8 -0.5,-1.3 -1.9,-1.3 -0.8,0 -1.8,0.4 -2.4,1 l -1,-1.1 c 0.9,-0.8 2.2,-1.3 3.4,-1.3 2.1,0 3.4,0.9 3.4,2.7 0,1.5 -0.8,2.2 -2.5,3.2 -1.9,1.1 -2.4,1.8 -2.7,2.7 h 5.3 z" /><path
   id="path789"
   d="m 1142.8,263.2 c 0,2 -1.4,3.1 -3.7,3.1 -1.4,0 -2.9,-0.6 -3.6,-1.6 l 1.1,-1 c 0.6,0.8 1.5,1.1 2.4,1.1 1.6,0 2.2,-0.6 2.2,-1.6 0,-1 -0.8,-1.5 -1.8,-1.5 h -0.9 v -1.4 h 0.9 c 0.9,0 1.4,-0.6 1.4,-1.4 0,-0.6 -0.4,-1.4 -1.9,-1.4 -0.8,0 -1.4,0.3 -2,0.9 l -1.1,-1 c 0.8,-0.9 1.8,-1.3 3.1,-1.3 1.9,0 3.4,1 3.4,2.7 0,1.2 -0.5,1.8 -1.2,2.2 1.1,0.2 1.7,1 1.7,2.2 z" /><path
   id="path793"
   d="m 861.2,317.2 h -7.1 l 0.4,1.1 c 0.1,0.2 0,0.3 -0.2,0.4 -0.1,0.1 -0.2,0.1 -0.4,0 l -3.7,-2.4 3.7,-2.4 c 0.2,-0.1 0.3,-0.1 0.4,-0.1 0.2,0.1 0.2,0.2 0.2,0.4 l -0.4,1.2 h 7.1 z" /><path
   id="path797"
   d="m 912.4,318.8 c 0.1,0.1 0.1,0.2 -0.1,0.4 l -2.4,3.4 -2.4,-3.4 c -0.1,-0.2 -0.1,-0.3 0,-0.4 0.1,-0.2 0.2,-0.2 0.4,-0.2 l 1.1,0.4 v -8.6 h 1.7 v 8.6 l 1.2,-0.3 c 0.3,-0.2 0.4,-0.1 0.5,0.1 z" /><path
   id="path801"
   d="m 969.7,316.4 -3.7,2.4 c -0.2,0.1 -0.3,0.1 -0.4,0 -0.2,-0.1 -0.2,-0.2 -0.2,-0.4 l 0.4,-1.1 h -7.1 v -1.7 h 7.1 l -0.4,-1.2 c -0.1,-0.2 0,-0.3 0.2,-0.4 0.1,-0.1 0.2,-0.1 0.4,0.1 z" /><path
   id="path805"
   d="m 1062.4,315.2 c 0,3 -1.4,5.1 -3.9,5.1 -2.5,0 -3.9,-2.1 -3.9,-5.1 0,-3 1.4,-5.1 3.9,-5.1 2.6,0 3.9,2.1 3.9,5.1 z m -1.5,0 c 0,-2.1 -0.7,-3.7 -2.4,-3.7 -1.7,0 -2.4,1.6 -2.4,3.7 0,2.1 0.7,3.7 2.4,3.7 1.8,0 2.4,-1.6 2.4,-3.7 z" /><path
   id="path809"
   d="m 1140.6,319.2 c 0,0.6 -0.5,1.1 -1.1,1.1 -0.6,0 -1.1,-0.5 -1.1,-1.1 0,-0.6 0.5,-1.1 1.1,-1.1 0.6,0 1.1,0.5 1.1,1.1 z" /><path
   d="m 32.5,19.3 c 1.5,0 2.8,0.5 3.8,1.6 1,1 1.6,2.3 1.6,3.8 0,1.5 -0.5,2.7 -1.6,3.8 -1,1.1 -2.3,1.6 -3.8,1.6 -1.5,0 -2.7,-0.5 -3.8,-1.6 -1.1,-1.1 -1.6,-2.3 -1.6,-3.8 h 1 c 0,1.2 0.4,2.2 1.3,3.1 0.9,0.9 1.9,1.3 3.1,1.3 1.2,0 2.2,-0.4 3.1,-1.3 0.9,-0.9 1.3,-1.9 1.3,-3.1 0,-1.2 -0.4,-2.2 -1.3,-3.1 -0.9,-0.9 -1.9,-1.3 -3.1,-1.3 z m 0.4,5 -0.7,0.7 -3.7,-3.7 -1.3,1.3 v -3.4 h 3.4 l -1.3,1.3 z"
   id="path813" /><path
   id="path815"
   d="M 28.2,44 H 22.9 V 36 H 28 v 1.2 h -3.9 v 2 h 2.3 v 1.2 h -2.3 v 2.5 h 4.1 V 44 Z" /><path
   id="path817"
   d="m 35,41.7 c 0,1.4 -0.9,2.4 -2.9,2.4 -1.2,0 -2.2,-0.5 -2.8,-1.3 L 30.2,42 c 0.5,0.6 1.3,0.9 2.1,0.9 1.1,0 1.6,-0.4 1.6,-1.2 0,-0.6 -0.5,-0.9 -1.8,-1.3 -1.7,-0.5 -2.5,-0.9 -2.5,-2.3 0,-1.4 1.2,-2.2 2.6,-2.2 1.1,0 1.9,0.4 2.6,1.1 L 34,37.9 c -0.5,-0.5 -1.1,-0.8 -1.8,-0.8 -0.9,0 -1.3,0.5 -1.3,1 0,0.6 0.4,0.8 1.7,1.2 1.4,0.5 2.4,1 2.4,2.4 z" /><path
   id="path819"
   d="m 42.5,42.6 c -0.6,1 -1.5,1.5 -2.7,1.5 -2.1,0 -3.4,-1.7 -3.4,-4.1 0,-2.4 1.3,-4.1 3.4,-4.1 1.3,0 2.2,0.5 2.7,1.5 l -1.1,0.7 c -0.4,-0.6 -0.8,-1 -1.6,-1 -1.4,0 -2.1,1.1 -2.1,2.9 0,1.8 0.7,2.9 2.1,2.9 0.8,0 1.3,-0.3 1.7,-1 z" /><path
   d="m 860.2,20.1 c 0.1,0.3 0.1,0.6 0.2,1 0,0.4 0.1,0.9 0.1,1.4 0,0.2 0,0.5 0,0.7 0,0.2 0,0.5 -0.1,0.7 -0.1,0.2 -0.1,0.4 -0.1,0.6 0,0.2 -0.1,0.3 -0.1,0.4 v 0 0.1 0 c -0.2,0.1 -0.5,0.2 -0.8,0.3 -0.3,0.1 -0.6,0.2 -1,0.3 -0.4,0.1 -0.7,0.1 -1.1,0.2 -0.4,0 -0.8,0.1 -1.2,0.1 -0.4,0 -0.8,0 -1.2,-0.1 -0.4,-0.1 -0.8,-0.1 -1.1,-0.2 -0.3,-0.1 -0.7,-0.2 -1,-0.3 -0.3,-0.1 -0.5,-0.2 -0.7,-0.3 H 852 v -0.1 0 c 0,-0.1 -0.1,-0.3 -0.1,-0.5 0,-0.2 -0.1,-0.4 -0.1,-0.6 0,-0.2 -0.1,-0.4 -0.1,-0.7 0,-0.3 0,-0.5 0,-0.7 0,-0.5 0,-1 0.1,-1.4 0.1,-0.4 0.1,-0.8 0.2,-1 v 0 -0.1 h 0.1 c 0.3,-0.2 0.8,-0.3 1.3,-0.5 0.5,-0.2 1.1,-0.3 1.8,-0.3 l 1.1,-1.1 h 1.4 v 1.2 c 0.5,0.1 1,0.2 1.4,0.3 0.4,0.1 0.8,0.3 1,0.5 l 0.1,0.1 z m -2,0.1 c -0.1,0 -0.2,0 -0.3,-0.1 -0.1,0 -0.2,-0.1 -0.3,-0.1 v 2.7 H 854 v -2.5 l 0.3,-0.3 c -0.4,0.1 -0.7,0.1 -1,0.2 -0.3,0.1 -0.5,0.2 -0.7,0.3 l -0.1,0.7 c 0,0.2 -0.1,0.4 -0.1,0.7 0,0.2 0,0.4 0,0.7 0,0.4 0,0.8 0.1,1.2 0.1,0.4 0.1,0.6 0.2,0.9 v 0 c 0.2,0.1 0.4,0.2 0.6,0.3 0.2,0.1 0.5,0.2 0.8,0.2 0.3,0.1 0.6,0.1 1,0.1 0.3,0 0.7,0 1,0 0.4,0 0.7,0 1,0 0.3,0 0.7,-0.1 0.9,-0.1 0.2,0 0.6,-0.1 0.8,-0.2 0.2,-0.1 0.4,-0.2 0.6,-0.3 0.1,-0.2 0.1,-0.5 0.2,-0.9 0.1,-0.4 0.1,-0.7 0.1,-1.2 0,-0.5 0,-0.8 -0.1,-1.1 0,-0.4 -0.1,-0.6 -0.2,-0.9 -0.2,-0.1 -0.4,-0.1 -0.6,-0.2 -0.2,0 -0.4,-0.1 -0.6,-0.1 z m -3.9,0.2 v 2.1 h 3.1 v -4.1 h -1 v 2 z m 0.2,-0.2 h 1.6 v -1.6 z m 3,-0.2 c 0.1,0 0.1,0 0,0 0.1,0 0.1,0 0,0 z"
   id="path823" /><path
   id="path825"
   d="m 848.6,31.9 c 0,1.2 -0.8,1.9 -2,1.9 H 845 V 36 h -0.9 v -6 h 2.5 c 1.2,0 2,0.7 2,1.9 z m -0.9,0 c 0,-0.7 -0.4,-1 -1,-1 H 845 v 2 h 1.6 c 0.7,0 1.1,-0.4 1.1,-1 z" /><path
   id="path827"
   d="m 854.2,31.8 c 0,1 -0.5,1.5 -1.3,1.7 l 1.2,2.4 h -1 l -1.2,-2.4 h -1.3 V 36 h -0.9 v -6 h 2.6 c 1.1,0 1.9,0.6 1.9,1.8 z m -0.9,0 c 0,-0.6 -0.4,-1 -1,-1 h -1.7 v 1.9 h 1.7 c 0.6,0.1 1,-0.2 1,-0.9 z" /><path
   id="path829"
   d="m 856.6,36 h -0.9 v -6 h 0.9 z" /><path
   id="path831"
   d="m 862.7,36 h -0.8 l -2.4,-3.7 c -0.1,-0.2 -0.3,-0.6 -0.4,-0.7 0,0.2 0,1 0,1.4 v 3 h -0.9 v -6 h 0.9 l 2.3,3.6 c 0.2,0.2 0.4,0.7 0.5,0.8 0,-0.2 0,-1.1 0,-1.4 v -3 h 0.9 v 6 z" /><path
   id="path833"
   d="m 868.2,30.9 h -1.7 V 36 h -0.9 v -5.1 h -1.7 V 30 h 4.4 v 0.9 z" /><path
   id="path835"
   d="m 844.1,44.5 c 0,1.1 -0.7,1.8 -2.2,1.8 -0.9,0 -1.6,-0.4 -2.1,-1 l 0.6,-0.6 c 0.4,0.4 1,0.7 1.5,0.7 0.8,0 1.2,-0.3 1.2,-0.9 0,-0.5 -0.3,-0.7 -1.3,-1 -1.3,-0.4 -1.9,-0.7 -1.9,-1.8 0,-1 0.9,-1.7 2,-1.7 0.8,0 1.4,0.3 1.9,0.8 l -0.6,0.6 c -0.4,-0.4 -0.8,-0.6 -1.4,-0.6 -0.7,0 -1,0.3 -1,0.7 0,0.4 0.3,0.6 1.3,0.9 1.3,0.6 2,1 2,2.1 z" /><path
   id="path837"
   d="m 849.7,45.1 c -0.4,0.7 -1.1,1.1 -2,1.1 -1.5,0 -2.5,-1.3 -2.5,-3.1 0,-1.8 1,-3.1 2.5,-3.1 1,0 1.6,0.4 2,1.1 l -0.8,0.5 c -0.3,-0.5 -0.6,-0.7 -1.2,-0.7 -1,0 -1.6,0.8 -1.6,2.2 0,1.4 0.6,2.2 1.6,2.2 0.6,0 1,-0.3 1.3,-0.7 z" /><path
   id="path839"
   d="m 855.5,42 c 0,1 -0.5,1.5 -1.3,1.7 l 1.2,2.4 h -1 l -1.2,-2.4 h -1.3 v 2.4 H 851 v -5.9 h 2.6 c 1,0 1.9,0.6 1.9,1.8 z m -0.9,0 c 0,-0.6 -0.4,-1 -1,-1 h -1.7 v 2 h 1.7 c 0.6,0 1,-0.3 1,-1 z" /><path
   id="path841"
   d="m 860.8,46.2 h -4 v -5.9 h 3.8 v 0.9 h -2.9 v 1.5 h 1.7 v 0.9 h -1.7 v 1.9 h 3.1 z" /><path
   id="path843"
   d="m 866.1,46.2 h -4 v -5.9 h 3.8 v 0.9 H 863 v 1.5 h 1.7 v 0.9 H 863 v 1.9 h 3.1 z" /><path
   id="path845"
   d="M 871.9,46.2 H 871 l -2.4,-3.7 c -0.1,-0.2 -0.3,-0.6 -0.4,-0.7 0,0.2 0,1 0,1.4 v 3.1 h -0.9 v -5.9 h 0.9 l 2.3,3.6 c 0.2,0.2 0.4,0.7 0.5,0.8 0,-0.2 0,-1.1 0,-1.4 v -3.1 h 0.9 z" /><path
   d="m 912.7,19.8 h -0.9 l -0.5,-0.4 v 5.3 l 0.5,-0.4 h 0.9 l -2.7,2.2 -2.7,-2.1 h 0.9 l 0.5,0.4 v -5.3 l -0.5,0.4 h -0.9 l 2.7,-2.1 z m -2.1,-1 -0.5,-0.4 -0.5,0.4 v 6.4 l 0.5,0.4 0.5,-0.4 z"
   id="path849" /><path
   id="path851"
   d="m 898.4,34.3 c 0,1.1 -0.7,1.8 -2.2,1.8 -0.9,0 -1.6,-0.4 -2.1,-1 l 0.6,-0.6 c 0.4,0.4 1,0.7 1.5,0.7 0.8,0 1.2,-0.3 1.2,-0.9 0,-0.5 -0.3,-0.7 -1.3,-1 -1.3,-0.4 -1.9,-0.7 -1.9,-1.8 0,-1 0.9,-1.7 2,-1.7 0.8,0 1.4,0.3 1.9,0.8 l -0.6,0.6 c -0.4,-0.4 -0.8,-0.6 -1.4,-0.6 -0.7,0 -1,0.3 -1,0.7 0,0.4 0.3,0.6 1.3,0.9 1.2,0.6 2,1 2,2.1 z" /><path
   id="path853"
   d="m 904,34.9 c -0.4,0.7 -1.1,1.1 -2,1.1 -1.5,0 -2.5,-1.3 -2.5,-3.1 0,-1.8 1,-3.1 2.5,-3.1 1,0 1.6,0.4 2,1.1 l -0.8,0.5 c -0.3,-0.5 -0.6,-0.7 -1.2,-0.7 -1,0 -1.6,0.8 -1.6,2.2 0,1.4 0.6,2.2 1.6,2.2 0.6,0 1,-0.3 1.3,-0.7 z" /><path
   id="path855"
   d="m 909.8,31.8 c 0,1 -0.5,1.5 -1.3,1.7 l 1.2,2.4 h -1 l -1.2,-2.4 h -1.3 V 36 h -0.9 v -6 h 2.6 c 1,0 1.9,0.6 1.9,1.8 z m -0.9,0 c 0,-0.6 -0.4,-1 -1,-1 h -1.7 v 1.9 h 1.7 c 0.5,0.1 1,-0.2 1,-0.9 z" /><path
   id="path857"
   d="m 915.8,33 c 0,1.9 -1,3.1 -2.5,3.1 -1.5,0 -2.5,-1.2 -2.5,-3.1 0,-1.9 1,-3.1 2.5,-3.1 1.5,0 2.5,1.2 2.5,3.1 z m -0.9,0 c 0,-1.4 -0.7,-2.2 -1.6,-2.2 -0.9,0 -1.6,0.8 -1.6,2.2 0,1.4 0.7,2.2 1.6,2.2 0.9,0 1.6,-0.8 1.6,-2.2 z" /><path
   id="path859"
   d="M 920.9,36 H 917 v -6 h 0.9 v 5.1 h 3 z" /><path
   id="path861"
   d="m 926,36 h -3.9 v -6 h 0.9 v 5.1 h 3 z" /><path
   id="path863"
   d="m 903.5,46.2 h -3.9 v -5.9 h 0.9 v 5.1 h 3 z" /><path
   id="path865"
   d="m 909.2,43.2 c 0,1.9 -1,3.1 -2.5,3.1 -1.5,0 -2.5,-1.2 -2.5,-3.1 0,-1.9 1,-3.1 2.5,-3.1 1.5,0 2.5,1.2 2.5,3.1 z m -0.9,0 c 0,-1.4 -0.7,-2.2 -1.6,-2.2 -0.9,0 -1.6,0.8 -1.6,2.2 0,1.4 0.7,2.2 1.6,2.2 1,0 1.6,-0.8 1.6,-2.2 z" /><path
   id="path867"
   d="m 914.8,45.1 c -0.4,0.7 -1.1,1.1 -2,1.1 -1.5,0 -2.5,-1.3 -2.5,-3.1 0,-1.8 1,-3.1 2.5,-3.1 1,0 1.6,0.4 2,1.1 l -0.8,0.5 c -0.3,-0.5 -0.6,-0.7 -1.2,-0.7 -1,0 -1.6,0.8 -1.6,2.2 0,1.4 0.6,2.2 1.6,2.2 0.6,0 1,-0.3 1.3,-0.7 z" /><path
   id="path869"
   d="m 920.8,46.2 h -1 l -1.7,-3.1 -1.1,1.3 v 1.7 h -0.9 v -5.9 h 0.9 v 2 c 0,0.2 0,0.9 0,1.1 0.1,-0.2 0.5,-0.6 0.7,-0.9 l 1.8,-2.2 h 1 l -1.7,2.2 z" /><path
   d="m 961.2,22 c 0,0.3 0,0.7 -0.1,1 -0.1,0.3 -0.2,0.6 -0.4,0.9 -0.2,0.3 -0.4,0.5 -0.6,0.8 -0.2,0.2 -0.5,0.4 -0.8,0.6 -0.3,0.2 -0.6,0.3 -0.9,0.4 -0.3,0.1 -0.7,0.1 -1,0.1 -0.3,0 -0.7,0 -1,-0.1 -0.3,-0.1 -0.6,-0.2 -0.9,-0.4 -0.3,-0.2 -0.5,-0.4 -0.8,-0.6 -0.2,-0.2 -0.4,-0.5 -0.6,-0.8 -0.2,-0.3 -0.3,-0.6 -0.4,-0.9 -0.1,-0.3 -0.1,-0.7 -0.1,-1 0,-0.4 0,-0.7 0.1,-1 0.1,-0.3 0.2,-0.6 0.4,-0.9 0.2,-0.3 0.4,-0.5 0.6,-0.8 0.2,-0.2 0.5,-0.4 0.8,-0.6 0.3,-0.2 0.6,-0.3 0.9,-0.4 0.3,-0.1 0.7,-0.1 1,-0.1 0.3,0 0.7,0 1,0.1 0.3,0.1 0.6,0.2 0.9,0.4 0.3,0.2 0.5,0.4 0.8,0.6 0.2,0.2 0.4,0.5 0.6,0.8 0.2,0.3 0.3,0.6 0.4,0.9 0.1,0.3 0.1,0.7 0.1,1 z m -1.6,0.4 -2.2,2.4 -2.2,-2.4 h -0.8 c 0,0.4 0.1,0.7 0.3,1.1 0.2,0.3 0.4,0.6 0.6,0.8 0.3,0.2 0.6,0.4 0.9,0.6 0.3,0.1 0.7,0.2 1.1,0.2 0.4,0 0.8,-0.1 1.1,-0.2 0.4,-0.1 0.7,-0.3 0.9,-0.6 0.2,-0.3 0.5,-0.5 0.6,-0.8 0.2,-0.3 0.3,-0.7 0.3,-1.1 z m 0.8,-0.9 c 0,-0.4 -0.1,-0.7 -0.3,-1 -0.2,-0.3 -0.4,-0.6 -0.7,-0.8 -0.3,-0.2 -0.6,-0.4 -0.9,-0.5 -0.3,-0.1 -0.7,-0.2 -1.1,-0.2 -0.4,0 -0.8,0.1 -1.1,0.2 -0.3,0.1 -0.6,0.3 -0.9,0.5 -0.3,0.2 -0.5,0.5 -0.7,0.8 -0.2,0.3 -0.3,0.6 -0.3,1 h 1 l 1.9,2.1 1.9,-2.1 z"
   id="path873" /><path
   d="m 974,22 c 0,0.3 0,0.7 -0.1,1 -0.1,0.3 -0.2,0.6 -0.4,0.9 -0.2,0.3 -0.4,0.5 -0.6,0.8 -0.2,0.2 -0.5,0.4 -0.8,0.6 -0.3,0.2 -0.6,0.3 -0.9,0.4 -0.3,0.1 -0.7,0.1 -1,0.1 -0.3,0 -0.7,0 -1,-0.1 -0.3,-0.1 -0.6,-0.2 -0.9,-0.4 -0.3,-0.2 -0.5,-0.4 -0.8,-0.6 -0.2,-0.2 -0.4,-0.5 -0.6,-0.8 -0.2,-0.3 -0.3,-0.6 -0.4,-0.9 -0.1,-0.3 -0.1,-0.7 -0.1,-1 0,-0.3 0,-0.7 0.1,-1 0.1,-0.3 0.2,-0.6 0.4,-0.9 0.2,-0.3 0.4,-0.5 0.6,-0.8 0.2,-0.2 0.5,-0.4 0.8,-0.6 0.3,-0.2 0.6,-0.3 0.9,-0.4 0.3,-0.1 0.7,-0.1 1,-0.1 0.3,0 0.7,0 1,0.1 0.3,0.1 0.6,0.2 0.9,0.4 0.3,0.2 0.5,0.4 0.8,0.6 0.2,0.2 0.4,0.5 0.6,0.8 0.2,0.3 0.3,0.6 0.4,0.9 0,0.3 0.1,0.7 0.1,1 z m -0.8,0 c 0,-0.3 0,-0.5 -0.1,-0.8 -0.1,-0.3 -0.2,-0.5 -0.3,-0.7 -0.1,-0.2 -0.3,-0.4 -0.5,-0.6 -0.2,-0.2 -0.4,-0.3 -0.6,-0.5 -0.2,-0.1 -0.5,-0.2 -0.7,-0.3 -0.3,-0.1 -0.5,-0.1 -0.8,-0.1 -0.4,0 -0.8,0.1 -1.2,0.2 -0.4,0.2 -0.7,0.4 -1,0.7 -0.3,0.3 -0.5,0.6 -0.7,1 -0.2,0.4 -0.2,0.8 -0.2,1.2 0,0.4 0.1,0.8 0.2,1.2 0.2,0.4 0.4,0.7 0.7,1 0.3,0.3 0.6,0.5 1,0.7 0.4,0.2 0.8,0.2 1.2,0.2 0.4,0 0.8,-0.1 1.2,-0.2 0.4,-0.2 0.7,-0.4 1,-0.7 0.3,-0.3 0.5,-0.6 0.7,-1 0.2,-0.4 0.1,-0.9 0.1,-1.3 z m -5.7,-1.4 h 5.4 l -2.7,4.5 z m 4.6,0.5 h -3.8 l 1.9,3.2 z"
   id="path875" /><path
   id="path877"
   d="m 955.5,32.2 c 0,1.2 -0.8,1.9 -2,1.9 H 952 v 2.2 h -0.9 v -5.9 h 2.5 c 1.1,-0.1 1.9,0.5 1.9,1.8 z m -0.9,0 c 0,-0.7 -0.4,-1 -1,-1 H 952 v 2 h 1.6 c 0.7,0 1,-0.4 1,-1 z" /><path
   id="path879"
   d="m 960.9,36.2 h -1 l -0.5,-1.4 H 957 l -0.5,1.4 h -0.9 l 2.1,-5.9 h 0.9 z m -1.7,-2.2 -0.5,-1.4 c -0.1,-0.4 -0.4,-1.1 -0.5,-1.4 -0.1,0.3 -0.3,0.9 -0.4,1.4 l -0.5,1.4 z" /><path
   id="path881"
   d="m 966.4,33.8 c 0,1.7 -0.8,2.6 -2.3,2.6 -1.5,0 -2.2,-1 -2.2,-2.6 v -3.5 h 0.9 v 3.4 c 0,1.1 0.5,1.7 1.4,1.7 0.9,0 1.4,-0.6 1.4,-1.7 v -3.5 h 0.9 v 3.6 z" /><path
   id="path883"
   d="m 971.9,34.5 c 0,1.1 -0.7,1.8 -2.2,1.8 -0.9,0 -1.6,-0.4 -2.1,-1 l 0.6,-0.6 c 0.4,0.4 1,0.7 1.5,0.7 0.8,0 1.2,-0.3 1.2,-0.9 0,-0.5 -0.3,-0.7 -1.3,-1 -1.3,-0.4 -1.9,-0.7 -1.9,-1.8 0,-1 0.9,-1.7 2,-1.7 0.8,0 1.4,0.3 1.9,0.8 l -0.6,0.6 c -0.4,-0.4 -0.8,-0.6 -1.4,-0.6 -0.7,0 -1,0.3 -1,0.7 0,0.4 0.3,0.6 1.3,0.9 1.2,0.7 2,1.1 2,2.1 z" /><path
   id="path885"
   d="m 977.2,36.2 h -4 v -5.9 h 3.8 v 0.9 h -2.9 v 1.5 h 1.7 v 0.9 h -1.7 v 1.9 h 3.1 z" /><path
   id="path889"
   d="m 954.8,44.6 c 0,1.2 -0.7,1.8 -2,1.8 h -2.4 v -5.9 h 2.4 c 1,0 1.7,0.5 1.7,1.5 0,0.6 -0.3,1 -0.8,1.2 0.6,0.2 1.1,0.6 1.1,1.4 z m -1.1,-2.5 c 0,-0.4 -0.2,-0.8 -0.8,-0.8 h -1.6 v 1.5 h 1.6 c 0.5,0.1 0.8,-0.3 0.8,-0.7 z m 0.2,2.6 c 0,-0.6 -0.4,-1 -1.1,-1 h -1.6 v 2 h 1.6 c 0.8,-0.1 1.1,-0.5 1.1,-1 z" /><path
   id="path891"
   d="m 960.7,42.3 c 0,1 -0.5,1.5 -1.3,1.7 l 1.2,2.4 h -1 L 958.4,44 H 957 v 2.4 h -0.9 v -5.9 h 2.6 c 1.1,0 2,0.6 2,1.8 z m -0.9,0 c 0,-0.6 -0.4,-1 -1,-1 H 957 v 1.9 h 1.7 c 0.6,0.1 1.1,-0.2 1.1,-0.9 z" /><path
   id="path893"
   d="m 966,46.5 h -4 v -5.9 h 3.8 v 0.9 h -2.9 V 43 h 1.7 v 0.9 h -1.7 v 1.9 h 3.1 z" /><path
   id="path895"
   d="m 972.1,46.5 h -1 l -0.5,-1.4 h -2.4 l -0.5,1.4 h -0.9 l 2.1,-5.9 h 0.9 z m -1.7,-2.3 -0.5,-1.4 c -0.1,-0.4 -0.4,-1.1 -0.5,-1.4 -0.1,0.3 -0.3,0.9 -0.4,1.4 l -0.5,1.4 z" /><path
   id="path897"
   d="m 978,46.5 h -1 l -1.7,-3.1 -1.1,1.3 v 1.7 h -0.9 v -5.9 h 0.9 v 2 c 0,0.2 0,0.9 0,1.1 0.1,-0.2 0.5,-0.6 0.7,-0.9 l 1.8,-2.2 h 1 l -1.7,2.2 z" /><path
   d="m 759.2,97.2 -5.1,-5.1 5.1,-5.1 h 9.5 v 10.2 z m -3.7,-5.1 4.1,4.1 h 8.1 V 88 h -8.1 z m 7.2,0.7 -2.3,2.3 -0.7,-0.7 2.3,-2.3 -2.3,-2.3 0.7,-0.7 2.3,2.3 2.3,-2.3 0.7,0.7 -2.3,2.3 2.3,2.3 -0.7,0.7 z"
   id="path901" /><path
   id="path903"
   d="m 735.4,109 c 0,1.6 -1,2.4 -2.7,2.4 h -3.2 v -7.9 h 3.3 c 1.4,0 2.3,0.7 2.3,2.1 0,0.8 -0.4,1.3 -1,1.6 0.6,0.1 1.3,0.7 1.3,1.8 z m -1.5,-3.4 c 0,-0.6 -0.3,-1 -1.1,-1 h -2.1 v 2.1 h 2.1 c 0.8,-0.1 1.1,-0.6 1.1,-1.1 z m 0.3,3.4 c 0,-0.8 -0.5,-1.3 -1.4,-1.3 h -2.2 v 2.6 h 2.1 c 1.2,0 1.5,-0.5 1.5,-1.3 z" /><path
   id="path905"
   d="m 743.5,111.4 h -1.3 l -0.7,-1.9 h -3.2 l -0.7,1.9 h -1.2 l 2.9,-7.9 h 1.3 z m -2.3,-3 -0.6,-1.8 c -0.2,-0.6 -0.5,-1.5 -0.6,-1.8 -0.1,0.3 -0.4,1.2 -0.6,1.8 l -0.6,1.8 z" /><path
   id="path907"
   d="m 750.5,110 c -0.6,1 -1.5,1.5 -2.7,1.5 -2.1,0 -3.4,-1.7 -3.4,-4.1 0,-2.4 1.3,-4.1 3.4,-4.1 1.3,0 2.2,0.5 2.7,1.5 l -1.1,0.7 c -0.4,-0.6 -0.8,-1 -1.6,-1 -1.4,0 -2.1,1.1 -2.1,2.9 0,1.8 0.7,2.9 2.1,2.9 0.8,0 1.3,-0.3 1.7,-1 z" /><path
   id="path909"
   d="m 758.5,111.4 h -1.3 l -2.3,-4.1 -1.5,1.8 v 2.3 h -1.2 v -7.9 h 1.2 v 2.7 c 0,0.3 0,1.2 0,1.4 0.1,-0.2 0.7,-0.9 0.9,-1.2 l 2.3,-2.9 h 1.3 l -2.3,2.9 z" /><path
   id="path911"
   d="m 764.9,109.1 c 0,1.4 -0.9,2.4 -2.9,2.4 -1.2,0 -2.2,-0.5 -2.8,-1.3 l 0.8,-0.8 c 0.5,0.6 1.3,0.9 2.1,0.9 1.1,0 1.6,-0.4 1.6,-1.2 0,-0.6 -0.5,-0.9 -1.8,-1.3 -1.7,-0.5 -2.5,-0.9 -2.5,-2.3 0,-1.4 1.2,-2.2 2.6,-2.2 1.1,0 1.9,0.4 2.6,1.1 l -0.8,0.9 c -0.5,-0.5 -1.1,-0.8 -1.8,-0.8 -0.9,0 -1.3,0.5 -1.3,1 0,0.6 0.4,0.8 1.7,1.2 1.5,0.5 2.5,1 2.5,2.4 z" /><path
   id="path913"
   d="m 772.5,105.9 c 0,1.6 -1.1,2.5 -2.6,2.5 h -2.1 v 3 h -1.2 v -7.9 h 3.3 c 1.6,0 2.6,0.8 2.6,2.4 z m -1.2,0 c 0,-0.9 -0.5,-1.4 -1.4,-1.4 h -2.1 v 2.7 h 2.1 c 1,0.1 1.4,-0.4 1.4,-1.3 z" /><path
   id="path915"
   d="m 779.8,111.4 h -1.3 l -0.7,-1.9 h -3.2 l -0.7,1.9 h -1.2 l 2.9,-7.9 h 1.3 z m -2.3,-3 -0.6,-1.8 c -0.2,-0.6 -0.5,-1.5 -0.6,-1.8 -0.1,0.3 -0.4,1.2 -0.6,1.8 l -0.6,1.8 z" /><path
   id="path917"
   d="m 786.8,110 c -0.6,1 -1.5,1.5 -2.7,1.5 -2.1,0 -3.4,-1.7 -3.4,-4.1 0,-2.4 1.3,-4.1 3.4,-4.1 1.3,0 2.2,0.5 2.7,1.5 l -1.1,0.7 c -0.4,-0.6 -0.8,-1 -1.6,-1 -1.4,0 -2.1,1.1 -2.1,2.9 0,1.8 0.7,2.9 2.1,2.9 0.8,0 1.3,-0.3 1.7,-1 z" /><path
   id="path919"
   d="m 793.8,111.4 h -5.3 v -7.9 h 5.1 v 1.2 h -3.9 v 2 h 2.3 v 1.2 h -2.3 v 2.5 h 4.1 z" /><path
   d="m 848.5,87.9 h 1.5 l 5.9,6.3 5.9,-6.3 h 1.6 l -7.5,7.9 z m 8.3,3.2 c -0.1,-0.2 -0.1,-0.4 -0.1,-0.5 -0.3,0.3 -0.5,0.5 -0.7,0.5 -0.2,0.1 -0.4,0.1 -0.6,0.1 -0.3,0 -0.6,-0.1 -0.8,-0.3 -0.2,-0.2 -0.3,-0.5 -0.3,-0.8 0,-0.4 0.2,-0.7 0.5,-0.9 0.3,-0.2 0.9,-0.4 1.6,-0.5 l 0.4,-0.1 v -0.4 c 0,-0.2 -0.1,-0.4 -0.2,-0.5 -0.2,-0.1 -0.4,-0.1 -0.6,-0.1 -0.3,0 -0.5,0.1 -0.6,0.2 -0.2,0.1 -0.2,0.3 -0.2,0.4 v 0.1 h -0.7 v -0.1 c 0,-0.2 0.1,-0.3 0.2,-0.5 0.1,-0.2 0.3,-0.3 0.6,-0.4 0.3,-0.1 0.5,-0.1 0.8,-0.1 0.3,0 0.5,0 0.8,0.1 0.2,0.1 0.4,0.2 0.5,0.4 0.1,0.2 0.2,0.4 0.2,0.8 V 90 c 0,0.2 0,0.3 0,0.5 0,0.2 0.1,0.4 0.1,0.6 z m -0.1,-1.9 h -0.2 c -0.7,0.2 -1.1,0.3 -1.3,0.5 -0.2,0.1 -0.3,0.3 -0.3,0.5 0,0.1 0,0.2 0.1,0.3 0.1,0.1 0.1,0.2 0.2,0.2 0.1,0.1 0.2,0.1 0.3,0.1 0.2,0 0.4,-0.1 0.5,-0.2 0.2,-0.1 0.3,-0.2 0.4,-0.4 0.1,-0.2 0.1,-0.4 0.1,-0.6 v -0.4 z"
   id="path923" /><path
   id="path925"
   d="m 838.3,111.2 h -1.2 v -7.9 h 1.2 z" /><path
   id="path927"
   d="m 846.4,111.2 h -1.1 l -3.2,-5 c -0.2,-0.3 -0.5,-0.8 -0.6,-1 0,0.3 0,1.4 0,1.8 v 4.1 h -1.2 v -7.9 h 1.2 l 3,4.8 c 0.2,0.3 0.5,0.9 0.7,1.1 0,-0.3 0,-1.4 0,-1.9 v -4.1 h 1.2 z" /><path
   id="path929"
   d="m 853.8,109 c 0,1.4 -0.9,2.4 -2.9,2.4 -1.2,0 -2.2,-0.5 -2.8,-1.3 l 0.8,-0.8 c 0.5,0.6 1.3,0.9 2.1,0.9 1.1,0 1.6,-0.4 1.6,-1.2 0,-0.6 -0.5,-0.9 -1.8,-1.3 -1.7,-0.5 -2.5,-0.9 -2.5,-2.3 0,-1.4 1.2,-2.2 2.6,-2.2 1.1,0 1.9,0.4 2.6,1.1 l -0.8,0.9 c -0.5,-0.5 -1.1,-0.8 -1.8,-0.8 -0.9,0 -1.3,0.5 -1.3,1 0,0.6 0.4,0.8 1.7,1.2 1.5,0.5 2.5,1 2.5,2.4 z" /><path
   id="path931"
   d="m 860.9,111.2 h -5.3 v -7.9 h 5.1 v 1.2 h -3.9 v 2 h 2.3 v 1.2 h -2.3 v 2.5 h 4.1 z" /><path
   id="path933"
   d="m 868.6,105.7 c 0,1.3 -0.7,2.1 -1.7,2.3 l 1.6,3.2 h -1.4 l -1.6,-3.1 h -1.8 v 3.1 h -1.2 v -7.9 h 3.5 c 1.4,0 2.6,0.7 2.6,2.4 z m -1.2,0 c 0,-0.8 -0.5,-1.3 -1.3,-1.3 h -2.3 v 2.6 h 2.3 c 0.7,0 1.3,-0.4 1.3,-1.3 z" /><path
   id="path935"
   d="m 875.5,104.5 h -2.3 v 6.8 H 872 v -6.8 h -2.3 v -1.2 h 5.8 z" /><path
   d="m 913.8,87.9 v 0.5 h -7.1 v 7.1 h -0.5 v -7.6 z m -6,2 0.4,-0.4 h 2.9 v 0.9 h -1.6 l 4.3,4.3 -0.8,0.8 -4.3,-4.3 v 1.6 h -0.9 z"
   id="path939" /><path
   id="path941"
   d="m 900.9,110.4 h -1.2 v -3.5 H 896 v 3.5 h -1.2 v -7.9 h 1.2 v 3.2 h 3.7 v -3.2 h 1.2 z" /><path
   id="path943"
   d="m 909.4,106.5 c 0,2.5 -1.4,4.1 -3.4,4.1 -2,0 -3.4,-1.6 -3.4,-4.1 0,-2.5 1.4,-4.1 3.4,-4.1 2,0 3.4,1.6 3.4,4.1 z m -1.2,0 c 0,-1.8 -0.9,-2.9 -2.2,-2.9 -1.3,0 -2.1,1.1 -2.1,2.9 0,1.8 0.9,2.9 2.2,2.9 1.2,0 2.1,-1.1 2.1,-2.9 z" /><path
   id="path945"
   d="M 918.1,110.4 H 917 v -4.2 c 0,-0.5 0,-1.2 0,-1.4 -0.1,0.2 -0.3,0.8 -0.5,1.2 l -1.9,4.5 -1.9,-4.5 c -0.2,-0.5 -0.4,-1 -0.5,-1.2 0,0.2 0,0.9 0,1.4 v 4.2 H 911 v -7.9 h 1.2 l 1.8,4.2 c 0.2,0.5 0.4,1 0.5,1.4 0.1,-0.3 0.3,-0.9 0.5,-1.4 l 1.7,-4.2 h 1.3 v 7.9 z" /><path
   id="path947"
   d="m 925.5,110.4 h -5.3 v -7.9 h 5.1 v 1.2 h -3.9 v 2 h 2.3 v 1.2 h -2.3 v 2.5 h 4.1 z" /><path
   d="m 964.5,92.3 h 1.8 v 1 h -1.8 v 1.2 h 1.8 v 1 h -1.8 v 2.7 h -1 v -2.7 h -1.8 v -1 h 1.8 v -1.2 h -1.8 v -1 h 1.8 V 90.2 H 961 l 3,-3 3,3 h -2.5 z"
   id="path951" /><path
   id="path953"
   d="m 954.4,105.9 c 0,1.6 -1.1,2.4 -2.6,2.4 h -2 v 2.9 h -1.1 v -7.7 h 3.2 c 1.4,-0.1 2.5,0.8 2.5,2.4 z m -1.2,0 c 0,-0.9 -0.5,-1.3 -1.3,-1.3 h -2.1 v 2.7 h 2.1 c 0.9,-0.1 1.3,-0.6 1.3,-1.4 z" /><path
   id="path955"
   d="m 961.7,108.2 c 0,2 -1.2,3.2 -2.9,3.2 -2,0 -3.3,-1.6 -3.3,-4 0,-2.4 1.3,-4 3.3,-4 1.3,0 2.1,0.5 2.6,1.4 l -1,0.6 c -0.4,-0.6 -0.8,-0.9 -1.6,-0.9 -1.3,0 -2.1,1.1 -2.1,2.8 0,1.7 0.7,2.8 2.1,2.8 1.3,0 1.8,-0.8 1.8,-1.7 v 0 h -1.3 v -1.1 h 2.4 z" /><path
   id="path957"
   d="m 972.2,108 c 0,2.2 -1.1,3.4 -3,3.4 -1.9,0 -2.9,-1.2 -2.9,-3.4 v -4.5 h 1.2 v 4.5 c 0,1.5 0.6,2.2 1.8,2.2 1.2,0 1.8,-0.8 1.8,-2.2 v -4.5 h 1.2 v 4.5 z" /><path
   id="path959"
   d="m 979.9,105.9 c 0,1.6 -1.1,2.4 -2.6,2.4 h -2 v 2.9 h -1.1 v -7.7 h 3.2 c 1.4,-0.1 2.5,0.8 2.5,2.4 z m -1.2,0 c 0,-0.9 -0.5,-1.3 -1.3,-1.3 h -2.1 v 2.7 h 2.1 c 0.8,-0.1 1.3,-0.6 1.3,-1.4 z" /><path
   d="m 1030.1,91 v -3.4 h -1.2 l 2.6,-2.6 2.6,2.6 h -1.2 V 91 h 1.2 v 2 h -5.2 v -2 z m 1.2,-5 -1.1,1.1 h 0.4 v 4.4 h -1.2 v 1 h 1.9 z m 0.4,0 v 6.5 h 1.9 v -1 h -1.2 v -4.4 h 0.4 z"
   id="path963" /><path
   d="m 1027.3,103.2 h -0.8 l -2.4,-3.7 c -0.1,-0.2 -0.3,-0.6 -0.4,-0.7 0,0.2 0,1 0,1.4 v 3.1 h -0.9 v -5.9 h 0.9 l 2.3,3.6 c 0.2,0.2 0.4,0.7 0.5,0.8 0,-0.2 0,-1.1 0,-1.4 v -3.1 h 0.9 v 5.9 z"
   id="path965" /><path
   d="m 1033.4,100.7 c 0,1.7 -0.8,2.6 -2.3,2.6 -1.5,0 -2.2,-1 -2.2,-2.6 v -3.5 h 0.9 v 3.4 c 0,1.1 0.5,1.7 1.4,1.7 0.9,0 1.4,-0.6 1.4,-1.7 v -3.5 h 0.9 v 3.6 z"
   id="path967" /><path
   d="m 1040.2,103.2 h -0.9 V 100 c 0,-0.4 0,-0.9 0,-1 -0.1,0.2 -0.2,0.6 -0.4,0.9 l -1.4,3.3 -1.4,-3.3 c -0.1,-0.3 -0.3,-0.8 -0.4,-0.9 0,0.2 0,0.7 0,1 v 3.1 h -0.8 v -5.9 h 0.9 l 1.3,3.2 c 0.1,0.3 0.3,0.8 0.4,1 0.1,-0.2 0.3,-0.7 0.4,-1 l 1.3,-3.2 h 1 z"
   id="path969" /><path
   d="m 1025,113.4 h -3.9 v -5.9 h 0.9 v 5.1 h 3 z"
   id="path971" /><path
   d="m 1030.7,110.4 c 0,1.9 -1,3.1 -2.5,3.1 -1.5,0 -2.5,-1.2 -2.5,-3.1 0,-1.9 1,-3.1 2.5,-3.1 1.5,0 2.5,1.2 2.5,3.1 z m -0.9,0 c 0,-1.4 -0.7,-2.2 -1.6,-2.2 -0.9,0 -1.6,0.8 -1.6,2.2 0,1.4 0.7,2.2 1.6,2.2 1,0 1.6,-0.9 1.6,-2.2 z"
   id="path973" /><path
   d="m 1036.3,112.3 c -0.4,0.7 -1.1,1.1 -2,1.1 -1.5,0 -2.5,-1.3 -2.5,-3.1 0,-1.8 1,-3.1 2.5,-3.1 1,0 1.6,0.4 2,1.1 l -0.8,0.5 c -0.3,-0.5 -0.6,-0.7 -1.2,-0.7 -1,0 -1.6,0.8 -1.6,2.2 0,1.4 0.6,2.2 1.6,2.2 0.6,0 1,-0.3 1.3,-0.7 z"
   id="path975" /><path
   d="m 1042.3,113.4 h -1 l -1.7,-3.1 -1.1,1.3 v 1.7 h -0.9 v -5.9 h 0.9 v 2 c 0,0.2 0,0.9 0,1.1 0.1,-0.2 0.5,-0.6 0.7,-0.9 l 1.8,-2.2 h 1 l -1.7,2.2 z"
   id="path977" /><path
   d="m 44.2,141.3 -1.9,2 h 10 v 0.9 h -10 l 1.9,2 -0.5,0.5 -3.1,-2.9 v 2.6 H 39.7 V 141 h 0.9 v 2.6 l 3.1,-2.9 z m 8.1,5.5 v 5.4 h -0.9 v -2.6 l -3.1,2.9 -0.5,-0.5 1.9,-2 h -10 v -0.9 h 10 l -1.9,-2 0.5,-0.5 3.1,2.9 v -2.6 h 0.9 z"
   id="path979" /><path
   id="path981"
   d="m 41.6,158.9 h -2.3 v 6.8 h -1.2 v -6.8 h -2.3 v -1.2 h 5.8 z" /><path
   id="path983"
   d="m 48.6,165.6 h -1.3 l -0.7,-1.9 h -3.2 l -0.7,1.9 h -1.2 l 2.9,-7.9 h 1.3 z m -2.3,-2.9 -0.6,-1.8 c -0.2,-0.6 -0.5,-1.5 -0.6,-1.8 -0.1,0.3 -0.4,1.2 -0.6,1.8 l -0.6,1.8 z" /><path
   id="path985"
   d="m 56,163.2 c 0,1.6 -1,2.4 -2.7,2.4 h -3.2 v -7.9 h 3.3 c 1.4,0 2.3,0.7 2.3,2.1 0,0.8 -0.4,1.3 -1,1.6 0.6,0.1 1.3,0.7 1.3,1.8 z m -1.5,-3.4 c 0,-0.6 -0.3,-1 -1.1,-1 h -2.1 v 2.1 h 2.1 c 0.8,-0.1 1.1,-0.6 1.1,-1.1 z m 0.4,3.4 c 0,-0.8 -0.5,-1.3 -1.4,-1.3 h -2.2 v 2.6 h 2.1 c 1.1,0 1.5,-0.5 1.5,-1.3 z" /><path
   d="m 858.3,151.7 h -9.5 v -10.2 h 9.5 l 5.1,5.1 z m 3.7,-5.1 -4.1,-4.1 h -8.1 v 8.2 h 8.1 z m -7.2,0.7 -2.3,2.3 -0.7,-0.7 2.3,-2.3 -2.3,-2.3 0.7,-0.7 2.3,2.3 2.3,-2.3 0.7,0.7 -2.3,2.3 2.3,2.3 -0.7,0.7 z"
   id="path989" /><path
   id="path991"
   d="m 852.4,161.3 c 0,2.8 -1.8,4 -3.9,4 h -2.2 v -7.9 h 2.2 c 2.1,0 3.9,1.1 3.9,3.9 z m -1.3,0 c 0,-1.7 -0.8,-2.8 -2.7,-2.8 h -1 v 5.6 h 1 c 2,0.1 2.7,-1.1 2.7,-2.8 z" /><path
   id="path993"
   d="M 859.3,165.3 H 854 v -7.9 h 5.1 v 1.2 h -3.9 v 2 h 2.3 v 1.2 h -2.3 v 2.5 h 4.1 z" /><path
   id="path995"
   d="M 866.1,165.3 H 861 v -7.9 h 1.2 v 6.8 h 4 v 1.1 z" /><path
   d="m 911.8,148.6 h -2.9 v -0.9 h 1.6 l -4.3,-4.3 0.8,-0.8 4.3,4.3 v -1.6 h 0.9 v 2.9 z m 2,-5.9 v 7.6 h -7.6 v -0.5 h 7.1 v -7.1 z"
   id="path999" /><path
   id="path1001"
   d="m 904.9,165.3 h -5.3 v -7.9 h 5.1 v 1.2 h -3.9 v 2 h 2.3 v 1.2 h -2.3 v 2.5 h 4.1 z" /><path
   id="path1003"
   d="m 912.7,165.3 h -1.1 l -3.2,-5 c -0.2,-0.3 -0.5,-0.8 -0.6,-1 0,0.3 0,1.4 0,1.8 v 4.1 h -1.2 v -7.9 h 1.2 l 3,4.8 c 0.2,0.3 0.5,0.9 0.7,1.1 0,-0.3 0,-1.4 0,-1.9 v -4.1 h 1.2 z" /><path
   id="path1005"
   d="m 920.7,161.3 c 0,2.8 -1.8,4 -3.9,4 h -2.2 v -7.9 h 2.2 c 2.2,0 3.9,1.1 3.9,3.9 z m -1.2,0 c 0,-1.7 -0.8,-2.8 -2.7,-2.8 h -1 v 5.6 h 1 c 2,0.1 2.7,-1.1 2.7,-2.8 z" /><path
   d="m 963.5,147.4 h -1.8 v -1 h 1.8 v -1.2 h -1.8 v -1 h 1.8 v -2.7 h 1 v 2.7 h 1.8 v 1 h -1.8 v 1.2 h 1.8 v 1 h -1.8 v 2.1 h 2.5 l -3,3 -3,-3 h 2.5 z"
   id="path1009" /><path
   id="path1011"
   d="m 953.9,159.9 c 0,1.6 -1.1,2.5 -2.6,2.5 h -2.1 v 3 H 948 v -7.9 h 3.3 c 1.5,-0.1 2.6,0.7 2.6,2.4 z m -1.2,0 c 0,-0.9 -0.5,-1.4 -1.4,-1.4 h -2.1 v 2.7 h 2.1 c 1,0 1.4,-0.5 1.4,-1.3 z" /><path
   id="path1013"
   d="m 961.5,162.2 c 0,2 -1.2,3.2 -3,3.2 -2.1,0 -3.4,-1.7 -3.4,-4.1 0,-2.4 1.3,-4.1 3.4,-4.1 1.3,0 2.2,0.5 2.7,1.5 l -1,0.6 c -0.4,-0.6 -0.8,-0.9 -1.7,-0.9 -1.4,0 -2.1,1.1 -2.1,2.9 0,1.8 0.8,2.9 2.1,2.9 1.3,0 1.8,-0.9 1.8,-1.8 v 0 H 959 v -1.1 h 2.5 z" /><path
   id="path1015"
   d="m 972.2,161.3 c 0,2.8 -1.8,4 -3.9,4 h -2.2 v -7.9 h 2.2 c 2.2,0 3.9,1.1 3.9,3.9 z m -1.2,0 c 0,-1.7 -0.8,-2.8 -2.7,-2.8 h -1 v 5.6 h 1 c 2,0.1 2.7,-1.1 2.7,-2.8 z" /><path
   id="path1017"
   d="m 979.9,165.3 h -1.1 l -3.2,-5 c -0.2,-0.3 -0.5,-0.8 -0.6,-1 0,0.3 0,1.4 0,1.8 v 4.1 h -1.2 v -7.9 h 1.2 l 3,4.8 c 0.2,0.3 0.5,0.9 0.7,1.1 0,-0.3 0,-1.4 0,-1.9 v -4.1 h 1.2 z" /><path
   d="m 47.2,200.4 5.6,-5.6 5.6,5.6 h -2.8 v 2.1 H 50 v -2.1 z m 5.6,-4.4 -3.7,3.7 h 1.7 v 2 h 4 v -2 h 1.7 z m -2.8,8.1 h 5.6 v 2.8 H 50 Z m 0.8,0.8 v 1.2 h 4 v -1.2 z"
   id="path1021" /><path
   id="path1023"
   d="m 28.3,218.2 c -0.6,1 -1.5,1.5 -2.7,1.5 -2.1,0 -3.4,-1.7 -3.4,-4.1 0,-2.4 1.3,-4.1 3.4,-4.1 1.3,0 2.2,0.5 2.7,1.5 l -1.1,0.7 c -0.4,-0.6 -0.8,-1 -1.6,-1 -1.4,0 -2.1,1.1 -2.1,2.9 0,1.8 0.7,2.9 2.1,2.9 0.8,0 1.3,-0.3 1.7,-1 z" /><path
   id="path1025"
   d="M 36.3,219.5 H 35 l -0.7,-1.9 h -3.2 l -0.7,1.9 h -1.2 l 2.9,-7.9 h 1.3 z m -2.3,-2.9 -0.6,-1.8 c -0.2,-0.6 -0.5,-1.5 -0.6,-1.8 -0.1,0.3 -0.4,1.2 -0.6,1.8 l -0.6,1.8 z" /><path
   id="path1027"
   d="m 43.7,214.1 c 0,1.6 -1.1,2.5 -2.6,2.5 H 39 v 3 h -1.2 v -7.9 h 3.3 c 1.6,-0.1 2.6,0.8 2.6,2.4 z m -1.2,0 c 0,-0.9 -0.5,-1.4 -1.4,-1.4 H 39 v 2.7 h 2.1 c 1,0.1 1.4,-0.5 1.4,-1.3 z" /><path
   id="path1029"
   d="m 50.5,217.3 c 0,1.4 -0.9,2.4 -2.9,2.4 -1.2,0 -2.2,-0.5 -2.8,-1.3 l 0.9,-0.8 c 0.5,0.6 1.3,0.9 2.1,0.9 1.1,0 1.6,-0.4 1.6,-1.2 0,-0.6 -0.5,-0.9 -1.8,-1.3 -1.7,-0.5 -2.5,-0.9 -2.5,-2.3 0,-1.4 1.2,-2.2 2.6,-2.2 1.1,0 1.9,0.4 2.6,1.1 l -0.8,0.8 c -0.5,-0.5 -1.1,-0.8 -1.8,-0.8 -0.9,0 -1.3,0.5 -1.3,1 0,0.6 0.4,0.8 1.7,1.2 1.4,0.6 2.4,1.1 2.4,2.5 z" /><path
   id="path1031"
   d="m 60.5,219.5 h -5.1 v -7.9 h 1.2 v 6.8 h 4 v 1.1 z" /><path
   id="path1033"
   d="m 68.1,215.6 c 0,2.5 -1.4,4.1 -3.4,4.1 -2,0 -3.4,-1.6 -3.4,-4.1 0,-2.5 1.4,-4.1 3.4,-4.1 2.1,0 3.4,1.6 3.4,4.1 z m -1.2,0 c 0,-1.8 -0.9,-2.9 -2.2,-2.9 -1.3,0 -2.1,1.1 -2.1,2.9 0,1.8 0.9,2.9 2.2,2.9 1.2,0 2.1,-1.1 2.1,-2.9 z" /><path
   id="path1035"
   d="m 75.5,218.2 c -0.6,1 -1.5,1.5 -2.7,1.5 -2.1,0 -3.4,-1.7 -3.4,-4.1 0,-2.4 1.3,-4.1 3.4,-4.1 1.3,0 2.2,0.5 2.7,1.5 l -1.1,0.7 c -0.4,-0.6 -0.8,-1 -1.6,-1 -1.4,0 -2.1,1.1 -2.1,2.9 0,1.8 0.7,2.9 2.1,2.9 0.8,0 1.3,-0.3 1.7,-1 z" /><path
   id="path1037"
   d="m 83.5,219.5 h -1.3 l -2.3,-4.1 -1.5,1.8 v 2.3 h -1.2 v -7.9 h 1.2 v 2.7 c 0,0.3 0,1.2 0,1.4 0.1,-0.2 0.7,-0.9 0.9,-1.2 l 2.3,-2.9 H 83 l -2.3,2.9 z" /><path
   class="st7"
   d="m 748.9,200.5 3,-3 v 2.5 h 7.1 v -4.4 h -3.5 v -1 h 4.6 V 201 H 752 v 2.5 z"
   id="path1041" /><path
   id="path1043"
   d="m 739,214.2 c 0,1.3 -0.7,2.1 -1.7,2.3 l 1.6,3.2 h -1.4 l -1.6,-3.1 h -1.8 v 3.1 h -1.2 v -7.9 h 3.5 c 1.4,0 2.6,0.8 2.6,2.4 z m -1.2,0.1 c 0,-0.8 -0.5,-1.3 -1.3,-1.3 h -2.3 v 2.6 h 2.3 c 0.7,-0.1 1.3,-0.5 1.3,-1.3 z"
   class="st7" /><path
   id="path1045"
   d="m 746.1,219.8 h -5.3 v -7.9 h 5.1 v 1.2 H 742 v 2 h 2.3 v 1.2 H 742 v 2.5 h 4.1 z"
   class="st7" /><path
   id="path1047"
   d="m 753.1,213 h -2.3 v 6.8 h -1.2 V 213 h -2.3 v -1.2 h 5.8 z"
   class="st7" /><path
   id="path1049"
   d="m 760.6,216.5 c 0,2.2 -1.1,3.4 -3,3.4 -2,0 -3,-1.3 -3,-3.5 v -4.6 h 1.2 v 4.6 c 0,1.5 0.6,2.3 1.8,2.3 1.2,0 1.8,-0.8 1.8,-2.2 v -4.6 h 1.2 z"
   class="st7" /><path
   id="path1051"
   d="m 768.7,214.2 c 0,1.3 -0.7,2.1 -1.7,2.3 l 1.6,3.2 h -1.4 l -1.6,-3.1 h -1.8 v 3.1 h -1.2 v -7.9 h 3.5 c 1.4,0 2.6,0.8 2.6,2.4 z m -1.2,0.1 c 0,-0.8 -0.5,-1.3 -1.3,-1.3 h -2.3 v 2.6 h 2.3 c 0.7,-0.1 1.3,-0.5 1.3,-1.3 z"
   class="st7" /><path
   id="path1053"
   d="m 776.6,219.8 h -1.1 l -3.2,-5 c -0.2,-0.3 -0.5,-0.8 -0.6,-1 0,0.3 0,1.4 0,1.8 v 4.1 h -1.2 v -7.9 h 1.2 l 3,4.8 c 0.2,0.3 0.5,0.9 0.7,1.1 0,-0.3 0,-1.4 0,-1.9 v -4.1 h 1.2 z"
   class="st7" /><path
   d="m 60.4,254.4 5.9,-5.9 5.9,5.9 h -2.9 v 5.2 h -5.9 v -5.2 z m 5.8,-4.6 -3.9,3.9 h 1.8 v 5.1 h 4.2 v -5.1 h 1.8 z"
   id="path1057" /><path
   id="path1059"
   d="m 56.6,271.5 c 0,1.4 -0.9,2.4 -2.9,2.4 -1.2,0 -2.2,-0.5 -2.8,-1.3 l 0.9,-0.8 c 0.5,0.6 1.3,0.9 2.1,0.9 1.1,0 1.6,-0.4 1.6,-1.2 0,-0.6 -0.5,-0.9 -1.8,-1.3 -1.7,-0.5 -2.5,-0.9 -2.5,-2.3 0,-1.4 1.2,-2.2 2.6,-2.2 1.1,0 1.9,0.4 2.6,1.1 l -0.8,0.8 c -0.5,-0.5 -1.1,-0.8 -1.8,-0.8 -0.9,0 -1.3,0.5 -1.3,1 0,0.6 0.4,0.8 1.7,1.2 1.4,0.6 2.4,1.1 2.4,2.5 z" /><path
   id="path1061"
   d="m 64.4,273.8 h -1.2 v -3.5 h -3.7 v 3.5 h -1.2 v -7.9 h 1.2 v 3.2 h 3.7 v -3.2 h 1.2 z" /><path
   id="path1063"
   d="m 67.7,273.8 h -1.2 v -7.9 h 1.2 z" /><path
   id="path1065"
   d="M 74.9,267.1 H 71 v 2.1 h 2.3 v 1.2 H 71 v 3.5 H 69.8 V 266 h 5.1 z" /><path
   id="path1067"
   d="m 81.7,267.1 h -2.3 v 6.8 h -1.2 v -6.8 h -2.3 v -1.2 h 5.8 z" /><path
   d="m 735.4,254.4 5.9,-5.9 5.9,5.9 h -2.9 v 5.2 h -5.9 v -5.2 z m 5.8,-4.6 -3.9,3.9 h 1.8 v 5.1 h 4.2 v -5.1 h 1.8 z"
   id="path1071" /><path
   id="path1073"
   d="m 731.6,271.5 c 0,1.4 -0.9,2.4 -2.9,2.4 -1.2,0 -2.2,-0.5 -2.8,-1.3 l 0.8,-0.8 c 0.5,0.6 1.3,0.9 2.1,0.9 1.1,0 1.6,-0.4 1.6,-1.2 0,-0.6 -0.5,-0.9 -1.8,-1.3 -1.7,-0.5 -2.5,-0.9 -2.5,-2.3 0,-1.4 1.2,-2.2 2.6,-2.2 1.1,0 1.9,0.4 2.6,1.1 l -0.8,0.8 c -0.5,-0.5 -1.1,-0.8 -1.8,-0.8 -0.9,0 -1.3,0.5 -1.3,1 0,0.6 0.4,0.8 1.7,1.2 1.5,0.6 2.5,1.1 2.5,2.5 z" /><path
   id="path1075"
   d="m 739.4,273.8 h -1.2 v -3.5 h -3.7 v 3.5 h -1.2 v -7.9 h 1.2 v 3.2 h 3.7 v -3.2 h 1.2 z" /><path
   id="path1077"
   d="m 742.7,273.8 h -1.2 v -7.9 h 1.2 z" /><path
   id="path1079"
   d="M 749.9,267.1 H 746 v 2.1 h 2.3 v 1.2 H 746 v 3.5 h -1.2 V 266 h 5.1 z" /><path
   id="path1081"
   d="m 756.7,267.1 h -2.3 v 6.8 h -1.2 v -6.8 h -2.3 v -1.2 h 5.8 z" /><path
   class="st7"
   d="m 1188.1,291.5 5.4,-5.4 5.4,5.4 -1,1 -4.5,-4.5 -4.4,4.5 z m 3.1,-5.4 v 1.4 h -3.2 v -1.4 z m 7.7,0 v 1.4 h -3.2 v -1.4 z"
   id="path1085" /><path
   id="path1087"
   d="m 1181.4,326.4 h -5.3 v -7.9 h 5.1 v 1.2 h -3.9 v 2 h 2.3 v 1.2 h -2.3 v 2.5 h 4.1 z"
   class="st7" /><path
   id="path1089"
   d="m 1189.1,326.4 h -1.1 l -3.2,-5 c -0.2,-0.3 -0.5,-0.8 -0.6,-1 0,0.3 0,1.4 0,1.8 v 4.1 h -1.2 v -7.9 h 1.2 l 3,4.8 c 0.2,0.3 0.5,0.9 0.7,1.1 0,-0.3 0,-1.4 0,-1.9 v -4.1 h 1.2 z"
   class="st7" /><path
   id="path1091"
   d="m 1196.5,319.7 h -2.3 v 6.8 h -1.2 v -6.8 h -2.3 v -1.2 h 5.8 z"
   class="st7" /><path
   id="path1093"
   d="m 1203.4,326.4 h -5.3 v -7.9 h 5.1 v 1.2 h -3.9 v 2 h 2.3 v 1.2 h -2.3 v 2.5 h 4.1 z"
   class="st7" /><path
   id="path1095"
   d="m 1211.1,320.9 c 0,1.3 -0.7,2.1 -1.7,2.3 l 1.6,3.2 h -1.4 l -1.6,-3.1 h -1.8 v 3.1 h -1.2 v -7.9 h 3.5 c 1.4,0 2.6,0.7 2.6,2.4 z m -1.2,0 c 0,-0.8 -0.5,-1.3 -1.3,-1.3 h -2.3 v 2.6 h 2.3 c 0.7,0 1.3,-0.4 1.3,-1.3 z"
   class="st7" /><path
   id="path1099"
   d="m 19.7,325 c -0.6,1 -1.5,1.5 -2.7,1.5 -2.1,0 -3.4,-1.7 -3.4,-4.1 0,-2.4 1.3,-4.1 3.4,-4.1 1.3,0 2.2,0.5 2.7,1.5 l -1.1,0.7 c -0.4,-0.6 -0.8,-1 -1.6,-1 -1.4,0 -2.1,1.1 -2.1,2.9 0,1.8 0.7,2.9 2.1,2.9 0.8,0 1.3,-0.3 1.7,-1 z" /><path
   id="path1101"
   d="m 27.5,322.5 c 0,2.5 -1.4,4.1 -3.4,4.1 -2,0 -3.4,-1.6 -3.4,-4.1 0,-2.5 1.4,-4.1 3.4,-4.1 2,0 3.4,1.6 3.4,4.1 z m -1.2,0 c 0,-1.8 -0.9,-2.9 -2.2,-2.9 -1.3,0 -2.1,1.1 -2.1,2.9 0,1.8 0.9,2.9 2.2,2.9 1.2,0 2.1,-1.1 2.1,-2.9 z" /><path
   id="path1103"
   d="m 35.2,326.4 h -1.1 l -3.2,-5 c -0.2,-0.3 -0.5,-0.8 -0.6,-1 0,0.3 0,1.4 0,1.8 v 4.1 h -1.2 v -7.9 h 1.2 l 3,4.8 c 0.2,0.3 0.5,0.9 0.7,1.1 0,-0.3 0,-1.4 0,-1.9 v -4.1 h 1.2 z" /><path
   id="path1105"
   d="m 42.6,319.7 h -2.3 v 6.8 h -1.2 v -6.8 h -2.3 v -1.2 h 5.8 z" /><path
   id="path1107"
   d="m 50.2,320.9 c 0,1.3 -0.7,2.1 -1.7,2.3 l 1.6,3.2 h -1.4 l -1.6,-3.1 h -1.8 v 3.1 h -1.2 v -7.9 h 3.5 c 1.4,0 2.6,0.7 2.6,2.4 z m -1.2,0 c 0,-0.8 -0.5,-1.3 -1.3,-1.3 h -2.3 v 2.6 h 2.3 c 0.7,0 1.3,-0.4 1.3,-1.3 z" /><path
   id="path1109"
   d="m 58.2,322.5 c 0,2.5 -1.4,4.1 -3.4,4.1 -2,0 -3.4,-1.6 -3.4,-4.1 0,-2.5 1.4,-4.1 3.4,-4.1 2,0 3.4,1.6 3.4,4.1 z m -1.2,0 c 0,-1.8 -0.9,-2.9 -2.2,-2.9 -1.3,0 -2.1,1.1 -2.1,2.9 0,1.8 0.9,2.9 2.2,2.9 1.2,0 2.1,-1.1 2.1,-2.9 z" /><path
   id="path1111"
   d="m 65,326.4 h -5.1 v -7.9 h 1.2 v 6.8 h 4 v 1.1 z" /><path
   d="m 111,302.8 v 8.8 h -8.7 v -8.8 z m -4.8,4 v -3.2 H 103 v 3.2 z m 0,0.8 H 103 v 3.2 h 3.2 z m 0.8,-0.8 h 3.3 v -3.3 H 107 Z m 0,0.8 v 3.2 h 3.3 v -3.2 z"
   id="path1115" /><path
   id="path1117"
   d="m 105.3,318.5 -1.6,7.9 h -1.2 l -1.2,-5.1 c -0.1,-0.3 -0.2,-0.9 -0.2,-1.1 0,0.2 -0.2,0.8 -0.2,1.1 l -1.3,5.1 h -1.2 l -1.6,-7.9 H 98 l 1,5 c 0,0.2 0.1,0.8 0.2,1 0,-0.3 0.2,-0.8 0.2,-1 l 1.3,-5 h 1 l 1.3,5.1 c 0.1,0.2 0.1,0.6 0.2,0.9 0.1,-0.3 0.1,-0.7 0.2,-0.9 l 1,-5.1 z" /><path
   id="path1119"
   d="M 108.2,326.4 H 107 v -7.9 h 1.2 z" /><path
   id="path1121"
   d="m 116.3,326.4 h -1.1 l -3.2,-5 c -0.2,-0.3 -0.5,-0.8 -0.6,-1 0,0.3 0,1.4 0,1.8 v 4.1 h -1.2 v -7.9 h 1.2 l 3,4.8 c 0.2,0.3 0.5,0.9 0.7,1.1 0,-0.3 0,-1.4 0,-1.9 v -4.1 h 1.2 z" /><path
   d="m 180.1,302 v 1 H 177 l -4.6,9.2 h -4 v -1 h 3.2 l 4.6,-9.2 z m -4.7,10.3 v -1 h 4.8 v 1 z"
   id="path1125" /><path
   id="path1127"
   d="m 171.6,326.4 h -1.3 l -0.7,-1.9 h -3.2 l -0.7,1.9 h -1.2 l 2.9,-7.9 h 1.3 z m -2.3,-2.9 -0.6,-1.8 c -0.2,-0.6 -0.5,-1.5 -0.6,-1.8 -0.1,0.3 -0.4,1.2 -0.6,1.8 l -0.6,1.8 z" /><path
   id="path1129"
   d="m 178.4,326.4 h -5.1 v -7.9 h 1.2 v 6.8 h 4 v 1.1 z" /><path
   id="path1131"
   d="m 183.9,319.7 h -2.3 v 6.8 h -1.2 v -6.8 H 178 v -1.2 h 5.8 v 1.2 z" /><path
   d="m 374.8,309.2 v -2 h 0.7 v 1.4 h 2.6 v -1.4 h 0.7 v 2 z"
   id="path1135" /><path
   id="path1137"
   d="m 365.1,324.2 c 0,1.4 -0.9,2.4 -2.9,2.4 -1.2,0 -2.2,-0.5 -2.8,-1.3 l 0.9,-0.8 c 0.5,0.6 1.3,0.9 2.1,0.9 1.1,0 1.6,-0.4 1.6,-1.2 0,-0.6 -0.5,-0.9 -1.8,-1.3 -1.7,-0.5 -2.5,-0.9 -2.5,-2.3 0,-1.4 1.2,-2.2 2.6,-2.2 1.1,0 1.9,0.4 2.6,1.1 l -0.8,0.8 c -0.5,-0.5 -1.1,-0.8 -1.8,-0.8 -0.9,0 -1.3,0.5 -1.3,1 0,0.6 0.4,0.8 1.7,1.2 1.5,0.5 2.4,1 2.4,2.5 z" /><path
   id="path1139"
   d="m 372.8,321 c 0,1.6 -1.1,2.5 -2.6,2.5 h -2.1 v 3 h -1.2 v -7.9 h 3.3 c 1.5,-0.1 2.6,0.7 2.6,2.4 z m -1.2,0 c 0,-0.9 -0.5,-1.4 -1.4,-1.4 h -2.1 v 2.7 h 2.1 c 0.9,0.1 1.4,-0.5 1.4,-1.3 z" /><path
   id="path1141"
   d="m 380,326.4 h -1.3 l -0.7,-1.9 h -3.2 l -0.7,1.9 H 373 l 2.9,-7.9 h 1.3 z m -2.3,-2.9 -0.6,-1.8 c -0.2,-0.6 -0.5,-1.5 -0.6,-1.8 -0.1,0.3 -0.4,1.2 -0.6,1.8 l -0.6,1.8 z" /><path
   id="path1143"
   d="m 387.1,325 c -0.6,1 -1.5,1.5 -2.7,1.5 -2.1,0 -3.4,-1.7 -3.4,-4.1 0,-2.4 1.3,-4.1 3.4,-4.1 1.3,0 2.2,0.5 2.7,1.5 l -1.1,0.7 c -0.4,-0.6 -0.8,-1 -1.6,-1 -1.4,0 -2.1,1.1 -2.1,2.9 0,1.8 0.7,2.9 2.1,2.9 0.8,0 1.3,-0.3 1.7,-1 z" /><path
   id="path1145"
   d="m 394.1,326.4 h -5.3 v -7.9 h 5.1 v 1.2 H 390 v 2 h 2.3 v 1.2 H 390 v 2.5 h 4.1 z" /><path
   d="m 573.4,311.2 h 3.2 l 4.6,-9.2 h 4 v 1 H 582 l -4.6,9.2 h -4 z m 7,0 h 4.8 v 1 h -4.8 z"
   id="path1149" /><path
   id="path1151"
   d="m 576.7,326.4 h -1.3 l -0.7,-1.9 h -3.2 l -0.7,1.9 h -1.2 l 2.9,-7.9 h 1.3 z m -2.3,-2.9 -0.6,-1.8 c -0.2,-0.6 -0.5,-1.5 -0.6,-1.8 -0.1,0.3 -0.4,1.2 -0.6,1.8 l -0.6,1.8 z" /><path
   id="path1153"
   d="m 583.4,326.4 h -5.1 v -7.9 h 1.2 v 6.8 h 4 v 1.1 z" /><path
   id="path1155"
   d="m 588.9,319.7 h -2.3 v 6.8 h -1.2 v -6.8 H 583 v -1.2 h 5.8 v 1.2 z" /><path
   d="m 651.1,302.8 v 8.8 h -8.7 v -8.8 z m -4.8,4 v -3.2 h -3.2 v 3.2 z m 0,0.8 h -3.2 v 3.2 h 3.2 z m 0.8,-0.8 h 3.3 v -3.3 h -3.3 z m 0,0.8 v 3.2 h 3.3 v -3.2 z"
   id="path1159" /><path
   id="path1161"
   d="m 645.3,318.5 -1.6,7.9 h -1.2 l -1.2,-5.1 c -0.1,-0.3 -0.2,-0.9 -0.2,-1.1 0,0.2 -0.2,0.8 -0.2,1.1 l -1.3,5.1 h -1.2 l -1.6,-7.9 h 1.2 l 1,5 c 0,0.2 0.1,0.8 0.2,1 0,-0.3 0.2,-0.8 0.2,-1 l 1.3,-5 h 1 l 1.3,5.1 c 0.1,0.2 0.1,0.6 0.2,0.9 0.1,-0.3 0.1,-0.7 0.2,-0.9 l 1,-5.1 z" /><path
   id="path1163"
   d="M 648.2,326.4 H 647 v -7.9 h 1.2 z" /><path
   id="path1165"
   d="m 656.3,326.4 h -1.1 l -3.2,-5 c -0.2,-0.3 -0.5,-0.8 -0.6,-1 0,0.3 0,1.4 0,1.8 v 4.1 h -1.2 v -7.9 h 1.2 l 3,4.8 c 0.2,0.3 0.5,0.9 0.7,1.1 0,-0.3 0,-1.4 0,-1.9 v -4.1 h 1.2 z" /><path
   d="m 710.6,303.4 h 7.3 v 1.2 h -7.3 z m 0,2.5 h 7.3 v 1.2 h -7.3 z m 0,2.5 h 7.3 v 1.2 h -7.3 z m 0,2.5 h 7.3 v 1.2 h -7.3 z"
   id="path1169" /><path
   id="path1171"
   d="m 706.3,326.3 h -1.2 v -4.2 c 0,-0.5 0,-1.2 0,-1.4 -0.1,0.2 -0.3,0.8 -0.5,1.2 l -1.9,4.5 -1.9,-4.5 c -0.2,-0.5 -0.4,-1 -0.5,-1.2 0,0.2 0,0.9 0,1.4 v 4.2 h -1.1 v -7.9 h 1.2 l 1.8,4.2 c 0.2,0.5 0.4,1 0.5,1.4 0.1,-0.3 0.3,-0.9 0.5,-1.4 l 1.7,-4.2 h 1.3 v 7.9 z" /><path
   id="path1173"
   d="m 713.6,326.3 h -5.3 v -7.9 h 5.1 v 1.2 h -3.9 v 2 h 2.3 v 1.2 h -2.3 v 2.5 h 4.1 z" /><path
   id="path1175"
   d="m 721.3,326.3 h -1.1 l -3.2,-5 c -0.2,-0.3 -0.5,-0.8 -0.6,-1 0,0.3 0,1.4 0,1.8 v 4.1 h -1.2 v -7.9 h 1.2 l 3,4.8 c 0.2,0.3 0.5,0.9 0.7,1.1 0,-0.3 0,-1.4 0,-1.9 v -4.1 h 1.2 z" /><path
   id="path1177"
   d="m 729.4,323 c 0,2.2 -1.1,3.4 -3,3.4 -2,0 -3,-1.3 -3,-3.5 v -4.6 h 1.2 v 4.6 c 0,1.5 0.6,2.3 1.8,2.3 1.2,0 1.8,-0.8 1.8,-2.2 v -4.6 h 1.2 z" /><path
   d="m 781.2,313.6 v -1.4 c -1.5,-0.2 -2.7,-0.9 -3.6,-2.1 l -1.2,0.7 -0.5,-0.9 1.2,-0.7 c -0.3,-0.7 -0.4,-1.4 -0.4,-2.1 0,-0.7 0.1,-1.4 0.4,-2.1 l -1.2,-0.7 0.5,-0.9 1.2,0.7 c 0.9,-1.2 2.1,-1.9 3.6,-2.1 v -1.4 h 1 v 1.4 c 1.5,0.2 2.7,0.9 3.6,2.1 l 1.2,-0.7 0.5,0.9 -1.2,0.7 c 0.3,0.7 0.5,1.4 0.5,2.1 0,0.7 -0.2,1.4 -0.5,2.1 l 1.2,0.7 -0.5,0.9 -1.2,-0.7 c -0.9,1.2 -2.1,1.9 -3.6,2.1 v 1.4 z m -3.2,-8 v 0 c -0.2,0.5 -0.3,1 -0.3,1.6 0,0.5 0.1,1.1 0.3,1.6 v 0 l 2.8,-1.6 z m 3.2,-2.5 v 0 c -1.1,0.1 -2,0.7 -2.7,1.6 v 0 l 2.8,1.6 v -3.2 z m -2.7,6.5 v 0 c 0.7,0.9 1.6,1.4 2.7,1.6 v 0 -3.2 z m 6.5,-4.9 v 0 c -0.7,-0.9 -1.6,-1.4 -2.7,-1.6 v 0 3.2 z m -2.7,6.5 v 0 c 1.1,-0.1 2,-0.7 2.7,-1.6 v 0 l -2.8,-1.6 v 3.2 z m 3.2,-2.5 v 0 c 0.2,-0.5 0.3,-1 0.3,-1.6 0,-0.5 -0.1,-1.1 -0.3,-1.6 v 0 l -2.8,1.6 z"
   id="path1181" /><path
   d="m 38.7,313.6 v -1.4 C 37.2,312 36,311.3 35.1,310.1 l -1.2,0.7 -0.5,-0.9 1.2,-0.7 c -0.3,-0.7 -0.4,-1.4 -0.4,-2.1 0,-0.7 0.1,-1.4 0.4,-2.1 l -1.2,-0.7 0.5,-0.9 1.2,0.7 c 0.9,-1.2 2.1,-1.9 3.6,-2.1 v -1.4 h 1 v 1.4 c 1.5,0.2 2.7,0.9 3.6,2.1 l 1.2,-0.7 0.5,0.9 -1.2,0.7 c 0.3,0.7 0.5,1.4 0.5,2.1 0,0.7 -0.2,1.4 -0.5,2.1 l 1.2,0.7 -0.5,0.9 -1.2,-0.7 c -0.9,1.2 -2.1,1.9 -3.6,2.1 v 1.4 z m -3.2,-8 v 0 c -0.2,0.5 -0.3,1 -0.3,1.6 0,0.5 0.1,1.1 0.3,1.6 v 0 l 2.8,-1.6 z m 3.2,-2.5 v 0 c -1.1,0.1 -2,0.7 -2.7,1.6 v 0 l 2.8,1.6 v -3.2 z m -2.7,6.5 v 0 c 0.7,0.9 1.6,1.4 2.7,1.6 v 0 -3.2 z m 6.5,-4.9 v 0 c -0.7,-0.9 -1.6,-1.4 -2.7,-1.6 v 0 3.2 z m -2.7,6.5 v 0 c 1.1,-0.1 2,-0.7 2.7,-1.6 v 0 L 39.7,308 v 3.2 z m 3.2,-2.5 v 0 c 0.2,-0.5 0.3,-1 0.3,-1.6 0,-0.5 -0.1,-1.1 -0.3,-1.6 v 0 l -2.8,1.6 z"
   id="path1183" /><path
   id="path1185"
   d="m 762.2,325 c -0.6,1 -1.5,1.5 -2.7,1.5 -2.1,0 -3.4,-1.7 -3.4,-4.1 0,-2.4 1.3,-4.1 3.4,-4.1 1.3,0 2.2,0.5 2.7,1.5 l -1.1,0.7 c -0.4,-0.6 -0.8,-1 -1.6,-1 -1.4,0 -2.1,1.1 -2.1,2.9 0,1.8 0.7,2.9 2.1,2.9 0.8,0 1.3,-0.3 1.7,-1 z" /><path
   id="path1187"
   d="m 770,322.5 c 0,2.5 -1.4,4.1 -3.4,4.1 -2,0 -3.4,-1.6 -3.4,-4.1 0,-2.5 1.4,-4.1 3.4,-4.1 2,0 3.4,1.6 3.4,4.1 z m -1.2,0 c 0,-1.8 -0.9,-2.9 -2.2,-2.9 -1.3,0 -2.1,1.1 -2.1,2.9 0,1.8 0.9,2.9 2.2,2.9 1.2,0 2.1,-1.1 2.1,-2.9 z" /><path
   id="path1189"
   d="m 777.7,326.4 h -1.1 l -3.2,-5 c -0.2,-0.3 -0.5,-0.8 -0.6,-1 0,0.3 0,1.4 0,1.8 v 4.1 h -1.2 v -7.9 h 1.2 l 3,4.8 c 0.2,0.3 0.5,0.9 0.7,1.1 0,-0.3 0,-1.4 0,-1.9 v -4.1 h 1.2 z" /><path
   id="path1191"
   d="m 785.1,319.7 h -2.3 v 6.8 h -1.2 v -6.8 h -2.3 v -1.2 h 5.8 z" /><path
   id="path1193"
   d="m 792.7,320.9 c 0,1.3 -0.7,2.1 -1.7,2.3 l 1.6,3.2 h -1.4 l -1.6,-3.1 h -1.8 v 3.1 h -1.2 v -7.9 h 3.5 c 1.4,0 2.6,0.7 2.6,2.4 z m -1.2,0 c 0,-0.8 -0.5,-1.3 -1.3,-1.3 h -2.3 v 2.6 h 2.3 c 0.7,0 1.3,-0.4 1.3,-1.3 z" /><path
   id="path1195"
   d="m 800.7,322.5 c 0,2.5 -1.4,4.1 -3.4,4.1 -2,0 -3.4,-1.6 -3.4,-4.1 0,-2.5 1.4,-4.1 3.4,-4.1 2,0 3.4,1.6 3.4,4.1 z m -1.2,0 c 0,-1.8 -0.9,-2.9 -2.2,-2.9 -1.3,0 -2.1,1.1 -2.1,2.9 0,1.8 0.9,2.9 2.2,2.9 1.2,0 2.1,-1.1 2.1,-2.9 z" /><path
   id="path1197"
   d="m 807.5,326.4 h -5.1 v -7.9 h 1.2 v 6.8 h 4 v 1.1 z" />
<rect
   y="-76.275604"
   x="115.72771"
   height="20"
   width="20"
   id="rect1210"
   style="fill:#ffd5d5;stroke-width:3.02362;stroke-linecap:round;stroke-linejoin:round;paint-order:markers fill stroke" /><path
   d="m 665.01999,-46.075817 c -0.7,1.2 -1.9,1.9 -3.4,1.9 -2.6,0 -4.2,-2.1 -4.2,-5.1 0,-3.000004 1.6,-5.100004 4.2,-5.100004 1.6,0 2.7,0.7 3.4,1.9 l -1.3,0.8 c -0.5,-0.8 -1,-1.2 -2.1,-1.2 -1.7,0 -2.7,1.4 -2.7,3.600004 0,2.2 0.9,3.6 2.7,3.6 1,0 1.7,-0.4 2.2,-1.2 z"
   id="path739-5" /><path
   d="m 335.28078,-34.500528 h -1.7 v 2.3 h -1.4 v -2.3 h -2.3 v 2.3 h -1.4 v -2.3 h -1.7 v -1.3 h 1.7 v -2.7 h -1.7 v -1.4 h 1.7 v -2.3 h 1.4 v 2.3 h 2.3 v -2.3 h 1.4 v 2.3 h 1.7 v 1.3 h -1.7 v 2.7 h 1.7 z m -3.1,-1.3 v -2.7 h -2.3 v 2.7 z"
   id="path525-3" /><path
   d="m 328.48078,-30.800528 h -4.9 v 2.6 h 2.8 v 1.5 h -2.8 v 4.4 h -1.5 v -9.9 h 6.4 z"
   id="path683-8" /></svg>
